<svg width="1927" height="756" viewBox="0 0 1927 756" fill="none" xmlns="http://www.w3.org/2000/svg">
<path d="M544.802 196.654C555.19 194.313 565.718 191.861 576.547 191.801C591.627 191.587 606.576 193.604 621.556 194.765C641.218 197.397 661.241 198.704 680.362 203.651C698.51 207.812 715.495 214.775 732.982 220.499C741.444 224.045 750.057 227.308 758.469 230.957C768.195 235.16 778.472 238.552 787.516 243.823C796.771 249.189 805.715 254.947 814.227 261.141C825.878 269.583 838.371 277.118 850.463 285.072C860.5 292.078 871.108 298.477 882.318 304.056C893.848 310.319 906.371 315.061 918.654 320.136C928.049 324.382 937.805 328.013 947.761 331.217C933.173 331.541 918.784 329.286 904.326 328.056C892.394 326.808 880.312 326.484 868.541 324.296C857.021 322.101 845.61 319.418 833.909 318C816.343 315.83 799.297 311.327 781.671 309.524C770.521 308.021 759.211 308.226 747.991 307.499C736.421 306.739 724.83 306.346 713.299 305.338C691.01 304.321 668.701 303.287 646.552 300.878C631.001 299.186 615.33 298.717 599.708 297.7C589.321 297.059 578.903 297.418 568.505 297.307C556.102 297.179 543.74 298.05 531.397 298.913C520.839 299.733 510.201 300.519 499.913 302.809C484.392 306.372 468.851 309.926 453.049 312.438C441.258 314.334 429.186 314.3 417.394 316.197C405.523 317.829 393.842 320.315 381.971 321.947C369.147 323.647 356.423 325.885 343.619 327.688C334.866 328.799 326.273 330.602 317.6 332.037C300.545 335.079 282.878 335.113 266.133 339.478C248.817 343.383 233.056 350.833 216.231 355.891C199.035 361.47 182.461 368.612 164.554 372.491C154.287 374.602 143.678 374.969 133.331 376.712C123.154 378.25 113.358 381.274 103.111 382.513C84.9527 384.615 67.1354 388.459 48.897 390.108C39.3116 391.057 29.636 390.775 20.0205 390.296C13.6335 389.878 7.17638 389.451 1 387.921V272.898C7.56742 278.571 14.8868 283.611 22.4268 288.319C31.4107 293.941 41.6879 297.683 51.5541 301.972C61.3601 306.218 71.9682 309.208 82.8972 310.362C91.8209 311.327 100.785 312.079 109.698 313.096C118.903 314.027 128.117 315.616 137.432 315.035C146.847 314.514 156.232 313.642 165.617 312.814C180.205 311.242 194.814 308.969 209.583 309.362C222.197 309.832 234.78 308.593 247.253 307.132C262.514 305.432 276.922 300.639 291.681 297.162C305.879 293.103 320.377 289.447 333.592 283.321C351.399 275.341 368.104 265.704 386.071 257.98C403.006 250.445 420.212 243.362 436.986 235.579C447.013 231.529 456.919 227.257 467.177 223.635C484.382 217.56 501.538 211.374 518.713 205.214C527.176 201.874 535.748 198.67 544.802 196.654Z" fill="#9AB2BB" stroke="#9AB2BB"/>
<path d="M1661.24 226.121C1671.61 225.155 1682.08 224.745 1692.5 225.403C1706.51 226.274 1720.5 227.872 1734.59 227.735C1744.21 227.59 1753.85 228.419 1763.48 227.821C1774.56 227.325 1785.68 227.718 1796.77 227.043C1806.78 226.471 1816.81 227.095 1826.8 227.582C1838.05 228.325 1849.06 230.623 1859.93 233.126C1868.27 235.04 1876.86 236.065 1885.22 237.937C1898.57 240.824 1912.36 241.841 1926.11 242.02V517.042C1922.72 516.845 1919.34 516.623 1915.98 516.409C1897.2 515.555 1879.48 509.805 1861.82 504.841C1843.89 499.134 1825.78 493.888 1807.71 488.531C1788.89 483.063 1771.99 473.93 1753.9 467.053C1743.53 463.234 1733.74 458.406 1723.43 454.502C1707.58 448.444 1691.51 442.763 1676.09 435.919C1661.19 429.264 1645.4 424.129 1629.18 420.361C1605.47 414.329 1580.98 409.784 1556.12 409.793C1543.7 409.921 1531.22 410.451 1518.85 409.263C1499.34 407.025 1480.14 403.248 1460.74 400.514C1449.85 399.011 1438.89 397.985 1427.97 396.806C1403.41 394.064 1379.38 388.288 1354.6 386.947C1339.22 385.947 1323.92 384.102 1308.5 383.538C1286.41 382.949 1264.38 381.257 1242.28 381.095C1219.69 381.069 1197.54 385.153 1175.27 387.767C1165.87 389.202 1156.32 389.801 1146.86 390.954C1132.93 392.261 1118.89 392.705 1105.06 394.764C1093.69 396.524 1082.21 397.712 1070.91 399.814C1038.07 406.512 1004.04 404.487 970.582 404.786C936.161 404.359 901.599 404.47 867.398 408.221C851.325 410.476 835.524 414.176 819.23 415.244C801.443 417.422 783.766 420.336 766.28 423.881C742.667 427.777 719.636 433.903 695.923 437.38C687.11 438.679 678.567 441.037 669.784 442.438C653.952 445.104 637.779 445.36 621.797 446.983C609.975 448.256 598.044 448.487 586.242 449.829C575.664 450.973 565.086 452.178 554.438 452.733C543.058 453.314 531.808 455.322 520.378 455.356C510.963 455.382 501.528 455.51 492.153 454.681C480.763 453.776 469.513 451.836 458.082 451.289C447.825 450.802 437.628 449.615 427.391 448.906C412.933 447.949 398.565 445.916 384.026 445.933C366.309 445.958 348.582 446.206 330.865 446.556C322.854 446.522 314.832 446.676 306.881 447.641C291.882 449.136 276.782 450.187 261.671 450.17C238.961 451.136 216.01 453.084 194.403 459.474C183.995 462.635 173.758 466.215 163.631 469.974C157.956 472.068 152.552 474.691 146.797 476.63C135.767 477.271 124.949 479.321 114.02 480.594C92.7333 483.166 71.5872 486.754 50.0902 487.797C33.6065 488.702 17.3233 491.171 1 493.247V387.921C7.17638 389.45 13.6335 389.877 20.0205 390.296C29.636 390.775 39.3116 391.056 48.897 390.108C67.1354 388.459 84.9527 384.615 103.111 382.513C113.358 381.274 123.154 378.249 133.331 376.712C143.678 374.969 154.287 374.601 164.554 372.491C182.461 368.612 199.035 361.47 216.231 355.891C233.056 350.833 248.817 343.383 266.133 339.478C282.878 335.112 300.545 335.078 317.6 332.037C326.273 330.601 334.866 328.799 343.619 327.688C356.423 325.885 369.147 323.647 381.971 321.947C393.842 320.315 405.523 317.829 417.394 316.197C429.186 314.3 441.258 314.334 453.049 312.437C468.851 309.926 484.392 306.371 499.913 302.809C510.201 300.519 520.839 299.733 531.397 298.913C543.74 298.05 556.102 297.178 568.505 297.307C578.903 297.418 589.321 297.059 599.708 297.7C615.33 298.716 631.001 299.186 646.552 300.878C668.701 303.287 691.01 304.321 713.299 305.338C724.83 306.346 736.421 306.739 747.991 307.499C759.211 308.225 770.521 308.02 781.671 309.524C799.297 311.327 816.343 315.829 833.909 317.999C845.61 319.418 857.021 322.1 868.541 324.296C880.312 326.483 892.394 326.808 904.326 328.055C918.784 329.286 933.173 331.541 947.761 331.216C956.023 332.011 964.375 331.797 972.657 332.464C983.025 332.925 993.322 334.104 1003.67 334.728L1016.16 336.215C1034.47 335.497 1052.52 339.265 1070.83 338.632C1083.83 338.453 1097.13 338.778 1109.74 335.557C1117.11 334.608 1124.38 333.113 1131.41 330.943C1148.92 326.022 1166.19 320.469 1183.18 314.334C1189.33 312.241 1195.45 310.062 1201.34 307.465C1205.54 306.277 1209.68 304.962 1213.84 303.68C1233.47 297.52 1254.2 294.598 1274.16 289.335C1293.07 284.218 1312.24 279.818 1331.52 275.862C1352.21 272.265 1373.14 269.736 1393.94 266.643C1408.4 263.995 1422.97 261.671 1437.72 260.646C1458.91 259.586 1479.83 256.263 1501.03 255.349C1515 254.639 1528.49 251.367 1541.98 248.411C1557.08 244.823 1572.47 242.183 1587.54 238.509C1600.27 235.297 1613.42 233.63 1626.45 231.554C1638.06 229.82 1649.53 227.368 1661.24 226.121Z" fill="#CAD5D8" stroke="#CAD5D8"/>
<path d="M1903.44 214.039C1899.49 213.287 1895.69 212.108 1891.85 211.1C1882.09 209.332 1872.15 208.358 1862.53 206.119C1850.56 203.787 1839.49 199.071 1828.8 194.055C1827.15 193.38 1825.54 192.68 1823.98 191.928C1810.61 184.589 1795.18 180.83 1780.42 176.131C1770.77 172.816 1761.4 168.963 1751.9 165.383C1743.96 162.375 1735.44 160.795 1727.08 158.907C1726.6 158.864 1725.63 158.787 1725.14 158.753C1716.02 158.206 1706.82 157.326 1698.13 154.789C1689.37 152.388 1680.51 150.201 1672 147.202C1662.1 143.981 1651.6 142.255 1641.79 138.786C1631.29 135.335 1621.35 130.32 1610.04 128.987C1593.84 126.782 1577.81 122.775 1563.56 115.718C1556.59 112.412 1549.9 108.687 1543.46 104.671C1535.91 100.34 1528.5 95.8287 1521.48 90.8819C1514.14 85.6788 1506.24 81.0908 1498.54 76.2978C1490.22 71.445 1481.27 66.8997 1471.18 65.4388C1462.03 64.123 1453.17 61.3122 1443.82 61.1498C1433.31 60.8594 1422.96 62.7902 1412.56 63.7386C1400.48 64.9005 1389.16 68.8135 1377.51 71.5133C1370.64 73.1794 1363.88 75.2726 1356.77 76.0757C1341.94 78.0065 1326.65 76.4601 1312.07 79.8776C1300.86 82.4322 1289.84 85.5848 1278.59 88.0283C1270.99 89.7626 1263.05 89.4294 1255.32 90.3778C1245.61 91.2834 1236.07 93.3168 1226.3 93.7526C1220.95 94.0174 1215.57 94.1456 1210.29 94.9145C1206.73 95.5809 1203.25 96.5293 1199.81 97.5203C1191.16 100.331 1182.47 103.04 1173.64 105.389C1164.26 107.815 1156.27 113.301 1146.5 114.727C1137.7 116.017 1128.76 114.958 1119.91 114.975C1111.72 115.018 1103.75 113.343 1095.66 112.532C1083.72 111.677 1071.96 108.713 1059.91 109.473C1051.64 109.917 1043.24 109.507 1035.13 111.165C1023.28 113.429 1011.65 116.402 999.849 118.837C989.492 121.716 979.074 124.484 968.717 127.372C953.797 132.584 938.587 137.761 922.444 139.333C913.881 140.213 905.449 138.325 896.957 137.804C890.66 137.385 884.353 138.043 878.197 139.128C857.321 142.964 836.677 148.808 815.099 148.842C801.503 148.834 787.988 150.517 774.391 150.278C766.25 150.158 758.198 148.876 750.057 148.748C742.998 148.466 735.929 148.817 728.881 148.543C719.205 148.21 710.061 145.254 700.886 142.93C697.347 142.05 693.898 140.931 690.659 139.453C683.149 136.881 676.01 133.652 668.791 130.567C657.602 125.655 645.359 122.63 632.986 120.87C611.229 118.367 589.06 113.83 570.821 102.946C562.539 97.2042 553.816 91.9071 546.126 85.5677C533.723 75.9048 523.005 64.8578 511.524 54.4345C497.788 42.1828 483.71 30.1534 468.059 19.6703C453.621 10.1526 437.077 1.24152 418.217 1.0023C408.31 0.933946 398.555 2.40345 388.849 3.87296C374.2 5.33393 360.233 9.63996 346.557 14.1339C341.323 15.8683 335.948 17.2609 330.484 18.3289C318.522 20.6442 306.41 23.5491 294.027 22.6178C282.627 21.7378 271.267 20.4477 259.827 19.9949C249.78 19.3029 239.523 19.9009 229.707 17.6112C222.848 16.005 216.06 14.1766 209.393 12.0664C200.088 9.39218 190.242 8.04228 180.416 8.4951C162.528 9.36656 144.36 10.2551 126.673 7.18792C118.431 7.35025 110.069 7.2819 102.058 9.14443C96.6637 10.3747 91.2795 11.6477 85.8551 12.7755C74.9662 15.1165 64.6589 18.9867 54.0006 21.9429C47.2527 23.831 40.7153 26.266 33.8371 27.7953C27.9415 29.1025 21.8353 29.2477 15.8193 29.9056C10.8862 30.6916 5.96316 31.5887 1 32.2466V94.1456V272.897C7.56742 278.57 14.8868 283.61 22.4268 288.318C31.4107 293.94 41.6879 297.682 51.5541 301.971C61.3601 306.217 71.9682 309.207 82.8972 310.361C91.8209 311.326 100.785 312.078 109.698 313.095C118.903 314.026 128.117 315.615 137.432 315.034C146.847 314.513 156.232 313.641 165.617 312.813C180.205 311.241 194.814 308.968 209.583 309.361C222.197 309.831 234.78 308.592 247.253 307.131C262.514 305.431 276.922 300.638 291.681 297.161C305.879 293.102 320.377 289.446 333.592 283.32C351.399 275.34 368.104 265.703 386.071 257.979C403.006 250.444 420.212 243.361 436.986 235.578C447.013 231.528 456.919 227.256 467.177 223.634C484.382 217.559 501.538 211.374 518.713 205.214C527.176 201.873 535.748 198.669 544.802 196.653C555.19 194.312 565.718 191.86 576.547 191.8C591.627 191.586 606.576 193.603 621.556 194.765C641.218 197.396 661.241 198.703 680.362 203.65C698.51 207.811 715.495 214.774 732.982 220.498C741.444 224.044 750.057 227.307 758.469 230.956C768.195 235.159 778.472 238.551 787.516 243.822C796.771 249.188 805.715 254.946 814.227 261.14C825.878 269.582 838.371 277.117 850.463 285.071C860.5 292.077 871.108 298.476 882.318 304.055C893.848 310.318 906.371 315.06 918.654 320.135C928.049 324.381 937.805 328.012 947.761 331.216C956.023 332.01 964.375 331.797 972.657 332.463C983.025 332.925 993.322 334.104 1003.67 334.727C1003.67 334.727 1012.22 337.145 1016.16 336.214C1034.47 335.496 1052.52 339.264 1070.83 338.632C1083.83 338.452 1097.13 338.777 1109.74 335.556C1119.9 331.344 1130.49 327.969 1141 324.466C1151.86 320.818 1162.13 316.008 1173.11 312.591C1182.2 309.848 1191.72 308.097 1201.34 307.464C1205.54 306.277 1209.68 304.961 1213.84 303.68C1233.47 297.52 1254.2 294.598 1274.16 289.335C1293.07 284.217 1312.24 279.817 1331.52 275.861C1352.21 272.264 1373.14 269.735 1393.94 266.643C1408.4 263.994 1422.97 261.67 1437.72 260.645C1458.91 259.585 1479.83 256.262 1501.03 255.348C1515 254.639 1528.49 251.367 1541.98 248.41C1557.08 244.822 1572.47 242.182 1587.54 238.508C1600.27 235.296 1613.42 233.63 1626.45 231.554C1638.06 229.819 1649.53 227.367 1661.24 226.12C1671.61 225.154 1682.08 224.744 1692.5 225.402C1706.51 226.274 1720.5 227.871 1734.59 227.735C1744.21 227.589 1753.85 228.418 1763.48 227.82C1774.56 227.325 1785.68 227.718 1796.77 227.043C1806.78 226.47 1816.81 227.094 1826.8 227.581C1838.05 228.324 1849.06 230.622 1859.93 233.126C1868.27 235.04 1876.86 236.065 1885.22 237.936C1898.57 240.824 1912.36 241.84 1926.11 242.02V216.705C1918.58 215.594 1910.87 215.611 1903.44 214.039Z" fill="#7A9BA8" stroke="#7A9BA8"/>
<path d="M1173.11 312.591C1182.2 309.849 1191.72 308.097 1201.34 307.465C1195.45 310.062 1189.33 312.241 1183.18 314.334C1166.19 320.468 1148.92 326.022 1131.41 330.943C1124.38 333.113 1117.11 334.608 1109.74 335.556C1119.9 331.344 1130.49 327.97 1141 324.467C1151.86 320.819 1162.13 316.009 1173.11 312.591Z" fill="#7A9BA8" stroke="#7A9BA8"/>
<path d="M1175.27 387.766C1197.54 385.152 1219.69 381.068 1242.28 381.094C1264.38 381.256 1286.41 382.948 1308.5 383.537C1323.92 384.101 1339.22 385.947 1354.6 386.946C1379.38 388.288 1403.41 394.063 1427.96 396.806C1438.89 397.985 1449.85 399.01 1460.74 400.514C1480.14 403.248 1499.34 407.024 1518.85 409.262C1531.22 410.45 1543.7 409.92 1556.12 409.792C1580.98 409.784 1605.46 414.329 1629.18 420.361C1645.4 424.128 1661.19 429.263 1676.09 435.919C1691.51 442.762 1707.58 448.444 1723.43 454.501C1733.74 458.406 1743.53 463.233 1753.9 467.052C1771.99 473.93 1788.89 483.063 1807.71 488.531C1825.78 493.888 1843.89 499.133 1861.81 504.841C1879.48 509.804 1897.2 515.554 1915.98 516.409C1905.57 517.092 1895.18 515.648 1884.79 516.272C1873.47 516.776 1862.14 515.648 1850.84 516.289C1829.03 516.716 1807.26 518.263 1785.63 520.604C1775.91 521.279 1766.45 523.432 1757.04 525.482C1736.26 530.156 1715.31 534.248 1694.22 537.734C1680.54 540.006 1666.54 539.878 1652.79 541.638C1643.84 542.57 1635.02 544.21 1626.13 545.398C1615.86 546.747 1605.83 549.14 1595.5 550.208C1584.09 551.865 1572.7 553.651 1561.26 555.146C1540.74 558.837 1519.83 560.691 1499.38 564.681C1489.82 565.885 1480.45 568.158 1470.79 568.739C1449.36 570.388 1427.94 573.062 1407.43 578.752C1388.97 583.152 1371.89 590.739 1353.96 596.386C1331.28 603.272 1309.29 611.731 1286.47 618.292C1268.47 623.829 1249.47 626.375 1230.5 627.972C1210.75 629.835 1192.01 636.114 1172.27 638.045C1161.81 639.071 1151.57 641.318 1141.1 642.257C1129.05 643.906 1117.23 646.845 1105 647.477C1093.68 648.93 1082.24 649.118 1070.84 649.631C1058.51 649.101 1046.17 648.537 1033.94 647.102C1022.9 646.093 1012.04 644.043 1001.08 642.599C980.227 639.438 959.822 634.483 939.559 629.279C921.37 624.341 903.503 618.583 885.575 613.012C874.847 610.005 864.058 607.151 853.571 603.571C843.524 600.538 833.628 597.07 824.333 592.584C809.784 585.484 794.364 579.829 779.223 573.754C762.429 565.501 744.251 559.648 726.714 552.677C704.806 544.389 684.021 533.906 661.24 527.345C631.702 518.869 601.221 512.436 570.129 510.052C559.922 509.019 549.654 509.813 539.427 509.634C530.052 509.48 520.617 510.129 511.303 508.984C482.627 505.883 454.612 499.586 425.976 496.288C414.315 495.297 402.725 493.811 391.114 492.495C368.644 489.095 346.295 484.985 323.605 482.712C310.681 481.739 297.746 480.918 284.852 479.645C276.52 478.791 268.098 478.74 259.766 477.911C252.406 477.185 244.996 477.21 237.597 477.193C224.312 476.758 211.056 475.502 197.751 475.322C189.88 475.425 182.009 474.399 174.138 475.151C165.004 475.425 155.91 476.1 146.796 476.629C152.551 474.69 157.955 472.067 163.631 469.974C173.757 466.215 183.995 462.635 194.402 459.474C216.009 453.083 238.96 451.135 261.671 450.17C276.781 450.187 291.881 449.136 306.881 447.641C314.832 446.675 322.853 446.521 330.864 446.556C348.581 446.205 366.308 445.958 384.025 445.932C398.564 445.915 412.932 447.948 427.39 448.905C437.627 449.614 447.824 450.802 458.082 451.289C469.512 451.836 480.762 453.775 492.152 454.681C501.527 455.509 510.962 455.381 520.377 455.356C531.807 455.321 543.057 453.314 554.437 452.733C565.085 452.177 575.663 450.973 586.242 449.828C598.043 448.486 609.975 448.256 621.796 446.983C637.778 445.359 653.951 445.103 669.783 442.438C678.566 441.036 687.109 438.678 695.923 437.38C719.635 433.902 742.666 427.777 766.279 423.881C783.765 420.335 801.442 417.422 819.23 415.243C835.523 414.175 851.325 410.476 867.397 408.22C901.598 404.469 936.16 404.358 970.581 404.785C1004.04 404.486 1038.07 406.511 1070.91 399.813C1082.21 397.711 1093.69 396.524 1105.06 394.764C1118.88 392.705 1132.93 392.26 1146.86 390.953C1156.32 389.8 1165.87 389.202 1175.27 387.766Z" fill="#7A9BA8" stroke="#7A9BA8"/>
<path d="M1382.3 549.131C1371.92 551.594 1361.39 554.174 1350.56 554.237C1335.48 554.462 1320.53 552.34 1305.55 551.118C1285.89 548.349 1265.87 546.974 1246.74 541.768C1228.6 537.39 1211.61 530.064 1194.12 524.04C1185.66 520.31 1177.05 516.876 1168.64 513.037C1158.91 508.614 1148.63 505.045 1139.59 499.498C1130.34 493.852 1121.39 487.793 1112.88 481.276C1101.23 472.394 1088.74 464.465 1076.64 456.095C1066.61 448.724 1056 441.99 1044.79 436.12C1033.26 429.53 1020.73 424.541 1008.45 419.201C999.057 414.733 989.302 410.912 979.345 407.541C993.934 407.199 1008.32 409.573 1022.78 410.867C1034.71 412.18 1046.79 412.521 1058.57 414.823C1070.09 417.133 1081.5 419.956 1093.2 421.448C1110.76 423.732 1127.81 428.469 1145.44 430.366C1156.59 431.948 1167.9 431.733 1179.12 432.497C1190.69 433.297 1202.28 433.71 1213.81 434.771C1236.1 435.841 1258.41 436.929 1280.55 439.464C1296.11 441.244 1311.78 441.738 1327.4 442.808C1337.79 443.482 1348.2 443.105 1358.6 443.222C1371 443.357 1383.37 442.44 1395.71 441.532C1406.27 440.669 1416.91 439.842 1427.19 437.432C1442.71 433.684 1458.26 429.944 1474.06 427.301C1485.85 425.305 1497.92 425.341 1509.71 423.345C1521.58 421.628 1533.26 419.012 1545.14 417.295C1557.96 415.506 1570.68 413.151 1583.49 411.254C1592.24 410.085 1600.83 408.188 1609.51 406.678C1626.56 403.478 1644.23 403.442 1660.97 398.848C1678.29 394.74 1694.05 386.9 1710.88 381.578C1728.07 375.708 1744.65 368.193 1762.55 364.111C1772.82 361.891 1783.43 361.504 1793.78 359.67C1803.95 358.052 1813.75 354.87 1824 353.566C1842.15 351.355 1859.97 347.309 1878.21 345.574C1887.79 344.576 1897.47 344.873 1907.09 345.376C1913.47 345.817 1919.93 346.266 1926.11 347.876L1926.11 468.906C1919.54 462.937 1912.22 457.633 1904.68 452.679C1895.7 446.764 1885.42 442.826 1875.55 438.313C1865.75 433.845 1855.14 430.699 1844.21 429.485C1835.29 428.47 1826.32 427.678 1817.41 426.609C1808.2 425.629 1798.99 423.957 1789.67 424.568C1780.26 425.116 1770.87 426.033 1761.49 426.905C1746.9 428.559 1732.29 430.951 1717.52 430.537C1704.91 430.043 1692.33 431.346 1679.85 432.883C1664.59 434.672 1650.18 439.716 1635.43 443.375C1621.23 447.645 1606.73 451.492 1593.51 457.938C1575.71 466.335 1559 476.475 1541.04 484.602C1524.1 492.531 1506.89 499.984 1490.12 508.173C1480.09 512.435 1470.19 516.929 1459.93 520.741C1442.72 527.133 1425.57 533.642 1408.39 540.123C1399.93 543.638 1391.36 547.009 1382.3 549.131Z" fill="#9AB2BB" stroke="#9AB2BB"/>
<path d="M265.863 518.122C255.495 519.138 245.027 519.569 234.61 518.877C220.593 517.96 206.605 516.279 192.518 516.423C182.893 516.576 173.257 515.704 163.631 516.333C152.542 516.854 141.423 516.441 130.333 517.151C120.327 517.753 110.3 517.097 100.304 516.585C89.0537 515.802 78.0445 513.384 67.1756 510.75C58.8335 508.736 50.2508 507.658 41.8886 505.689C28.5332 502.65 14.7466 501.581 1.00009 501.392L1.00011 212.009C4.3891 212.215 7.76804 212.449 11.1269 212.674C29.9068 213.573 47.6238 219.623 65.2906 224.846C83.2182 230.851 101.326 236.371 119.394 242.008C138.214 247.761 155.119 257.371 173.207 264.608C183.574 268.627 193.37 273.706 203.678 277.814C219.53 284.188 235.592 290.166 251.013 297.367C265.913 304.37 281.705 309.773 297.928 313.738C321.641 320.085 346.126 324.867 370.981 324.858C383.404 324.723 395.888 324.166 408.26 325.416C427.762 327.771 446.963 331.744 466.364 334.621C477.253 336.203 488.212 337.282 499.141 338.523C523.697 341.409 547.73 347.486 572.506 348.897C587.887 349.949 603.187 351.891 618.608 352.484C640.697 353.104 662.725 354.884 684.824 355.055C707.414 355.082 729.563 350.785 751.832 348.034C761.237 346.524 770.782 345.895 780.247 344.681C794.174 343.305 808.221 342.838 822.048 340.671C833.418 338.819 844.899 337.57 856.199 335.358C889.036 328.31 923.066 330.441 956.525 330.126C990.946 330.576 1025.51 330.459 1059.71 326.512C1075.78 324.139 1091.58 320.247 1107.88 319.123C1125.66 316.83 1143.34 313.765 1160.83 310.034C1184.44 305.935 1207.47 299.489 1231.18 295.83C1240 294.464 1248.54 291.982 1257.32 290.508C1273.15 287.703 1289.33 287.434 1305.31 285.726C1317.13 284.386 1329.06 284.143 1340.86 282.732C1351.44 281.527 1362.02 280.26 1372.67 279.675C1384.05 279.064 1395.3 276.951 1406.73 276.916C1416.14 276.889 1425.58 276.754 1434.95 277.626C1446.34 278.579 1457.59 280.619 1469.02 281.195C1479.28 281.707 1489.48 282.957 1499.72 283.703C1514.17 284.71 1528.54 286.849 1543.08 286.831C1560.8 286.804 1578.52 286.544 1596.24 286.175C1604.25 286.211 1612.27 286.049 1620.23 285.033C1635.22 283.46 1650.32 282.354 1665.44 282.372C1688.15 281.357 1711.1 279.307 1732.7 272.582C1743.11 269.256 1753.35 265.489 1763.48 261.534C1769.15 259.331 1774.55 256.572 1780.31 254.531C1791.34 253.857 1802.16 251.699 1813.09 250.36C1834.37 247.654 1855.52 243.878 1877.02 242.781C1893.5 241.828 1909.78 239.23 1926.11 237.046L1926.11 347.872C1919.93 346.263 1913.47 345.814 1907.09 345.373C1897.47 344.87 1887.79 344.573 1878.21 345.571C1859.97 347.306 1842.15 351.351 1824 353.563C1813.75 354.867 1803.95 358.049 1793.78 359.667C1783.43 361.501 1772.82 361.888 1762.55 364.108C1744.65 368.189 1728.07 375.705 1710.88 381.575C1694.05 386.897 1678.29 394.736 1660.97 398.845C1644.23 403.439 1626.56 403.475 1609.51 406.675C1600.83 408.185 1592.24 410.082 1583.49 411.251C1570.68 413.148 1557.96 415.503 1545.14 417.292C1533.26 419.009 1521.58 421.625 1509.71 423.342C1497.92 425.338 1485.85 425.302 1474.06 427.298C1458.26 429.941 1442.71 433.68 1427.19 437.429C1416.91 439.838 1406.27 440.665 1395.71 441.529C1383.37 442.436 1371 443.353 1358.6 443.219C1348.2 443.102 1337.79 443.479 1327.4 442.805C1311.78 441.735 1296.11 441.241 1280.55 439.461C1258.41 436.926 1236.1 435.838 1213.81 434.768C1202.28 433.707 1190.69 433.294 1179.12 432.494C1167.9 431.73 1156.59 431.945 1145.44 430.363C1127.81 428.466 1110.76 423.729 1093.2 421.445C1081.5 419.953 1070.09 417.13 1058.57 414.82C1046.79 412.518 1034.71 412.177 1022.78 410.864C1008.32 409.57 993.934 407.196 979.345 407.538C971.083 406.702 962.731 406.927 954.449 406.225C944.082 405.74 933.784 404.499 923.437 403.843L910.944 402.279C892.635 403.034 874.587 399.069 856.279 399.735C843.274 399.923 829.979 399.582 817.365 402.971C809.996 403.969 802.727 405.542 795.698 407.826C778.182 413.004 760.916 418.847 743.931 425.302C737.774 427.504 731.658 429.797 725.762 432.53C721.571 433.779 717.43 435.164 713.269 436.512C693.637 442.994 672.902 446.068 652.949 451.606C634.039 456.991 614.868 461.621 595.587 465.783C574.892 469.568 553.967 472.229 533.162 475.483C518.703 478.27 504.135 480.715 489.386 481.794C468.199 482.909 447.274 486.406 426.078 487.368C412.111 488.114 398.615 491.557 385.129 494.667C370.029 498.443 354.638 501.221 339.568 505.087C326.834 508.467 313.689 510.22 300.655 512.404C289.044 514.229 277.574 516.809 265.863 518.122Z" fill="#CAD5D8" stroke="#CAD5D8"/>
<path d="M23.6702 530.836C27.6207 531.627 31.4208 532.867 35.261 533.928C45.0169 535.789 54.9533 536.814 64.5788 539.169C76.5505 541.623 87.6199 546.586 98.3083 551.863C99.9526 552.573 101.567 553.31 103.131 554.101C116.496 561.824 131.927 565.779 146.687 570.724C156.332 574.212 165.707 578.266 175.202 582.033C183.143 585.197 191.666 586.86 200.028 588.847C200.509 588.892 201.472 588.973 201.963 589.009C211.087 589.584 220.282 590.51 228.975 593.18C237.738 595.706 246.592 598.008 255.104 601.163C265.01 604.552 275.508 606.368 285.314 610.018C295.812 613.65 305.758 618.927 317.068 620.33C333.271 622.649 349.294 626.865 363.542 634.291C370.52 637.77 377.208 641.689 383.645 645.915C391.195 650.473 398.605 655.219 405.623 660.424C412.963 665.899 420.864 670.727 428.564 675.77C436.886 680.876 445.84 685.659 455.927 687.196C465.081 688.58 473.935 691.538 483.289 691.709C493.797 692.015 504.145 689.983 514.542 688.985C526.624 687.762 537.944 683.645 549.595 680.804C556.463 679.051 563.231 676.849 570.34 676.004C585.17 673.972 600.46 675.599 615.039 672.003C626.249 669.315 637.268 665.998 648.518 663.427C656.118 661.602 664.059 661.953 671.789 660.955C681.495 660.002 691.04 657.862 700.806 657.404C706.16 657.125 711.535 656.99 716.819 656.181C720.378 655.48 723.857 654.482 727.297 653.439C735.95 650.482 744.633 647.632 753.466 645.16C762.851 642.606 770.832 636.835 780.608 635.334C789.411 633.976 798.345 635.091 807.199 635.073C815.39 635.028 823.361 636.79 831.443 637.644C843.385 638.543 855.146 641.663 867.198 640.862C875.47 640.395 883.862 640.826 891.973 639.082C903.825 636.7 915.456 633.572 927.257 631.01C937.614 627.98 948.032 625.067 958.39 622.029C973.309 616.545 988.52 611.097 1004.66 609.443C1013.23 608.517 1021.66 610.504 1030.15 611.052C1036.45 611.493 1042.75 610.8 1048.91 609.659C1069.79 605.622 1090.43 599.473 1112.01 599.437C1125.6 599.446 1139.12 597.675 1152.72 597.927C1160.86 598.053 1168.91 599.401 1177.05 599.536C1184.11 599.833 1191.18 599.464 1198.23 599.752C1207.9 600.103 1217.05 603.213 1226.22 605.658C1229.76 606.584 1233.21 607.762 1236.45 609.317C1243.96 612.023 1251.1 615.421 1258.32 618.667C1269.5 623.836 1281.75 627.018 1294.12 628.87C1315.88 631.504 1338.05 636.278 1356.29 647.731C1364.57 653.772 1373.29 659.346 1380.98 666.016C1393.38 676.184 1404.1 687.807 1415.58 698.775C1429.32 711.667 1443.4 724.324 1459.05 735.355C1473.49 745.369 1490.03 754.746 1508.89 754.998C1518.8 755.069 1528.55 753.523 1538.26 751.977C1552.91 750.44 1566.87 745.909 1580.55 741.18C1585.78 739.355 1591.16 737.89 1596.62 736.766C1608.58 734.33 1620.7 731.273 1633.08 732.253C1644.48 733.179 1655.84 734.537 1667.28 735.013C1677.33 735.741 1687.58 735.112 1697.4 737.521C1704.26 739.211 1711.05 741.135 1717.71 743.356C1727.02 746.17 1736.86 747.59 1746.69 747.113C1764.58 746.197 1782.75 745.262 1800.43 748.489C1808.67 748.318 1817.04 748.39 1825.05 746.43C1830.44 745.136 1835.83 743.796 1841.25 742.61C1852.14 740.146 1862.45 736.074 1873.11 732.963C1879.85 730.977 1886.39 728.415 1893.27 726.805C1899.16 725.43 1905.27 725.277 1911.29 724.585C1916.22 723.758 1921.14 722.814 1926.11 722.122L1926.11 656.99L1926.11 468.905C1919.54 462.936 1912.22 457.632 1904.68 452.678C1895.7 446.763 1885.42 442.825 1875.55 438.312C1865.75 433.844 1855.14 430.698 1844.21 429.484C1835.29 428.469 1826.32 427.677 1817.41 426.608C1808.2 425.628 1798.99 423.956 1789.67 424.567C1780.26 425.115 1770.87 426.032 1761.49 426.904C1746.9 428.558 1732.29 430.95 1717.52 430.536C1704.91 430.042 1692.33 431.345 1679.85 432.883C1664.59 434.671 1650.18 439.715 1635.43 443.374C1621.23 447.644 1606.73 451.491 1593.51 457.937C1575.71 466.334 1559 476.474 1541.04 484.601C1524.1 492.53 1506.89 499.983 1490.12 508.172C1480.09 512.434 1470.19 516.929 1459.93 520.74C1442.72 527.132 1425.57 533.641 1408.39 540.122C1399.93 543.637 1391.36 547.009 1382.3 549.13C1371.92 551.593 1361.39 554.173 1350.56 554.236C1335.48 554.461 1320.53 552.34 1305.55 551.117C1285.89 548.348 1265.87 546.973 1246.74 541.767C1228.6 537.389 1211.61 530.063 1194.12 524.039C1185.66 520.309 1177.05 516.875 1168.64 513.036C1158.91 508.613 1148.63 505.044 1139.59 499.497C1130.34 493.852 1121.39 487.792 1112.88 481.275C1101.23 472.393 1088.74 464.464 1076.64 456.094C1066.61 448.723 1056 441.989 1044.79 436.119C1033.26 429.529 1020.73 424.54 1008.45 419.2C999.057 414.732 989.302 410.911 979.345 407.54C971.083 406.704 962.731 406.929 954.449 406.228C944.082 405.742 933.784 404.502 923.437 403.845C923.437 403.845 914.884 401.301 910.944 402.281C892.635 403.036 874.587 399.072 856.279 399.737C843.274 399.926 829.979 399.584 817.365 402.973C807.209 407.405 796.621 410.956 786.103 414.642C775.244 418.481 764.977 423.542 753.997 427.138C744.903 430.024 735.388 431.867 725.763 432.532C721.571 433.781 717.43 435.166 713.269 436.514C693.637 442.996 672.902 446.071 652.949 451.608C634.039 456.993 614.868 461.623 595.587 465.785C574.892 469.57 553.967 472.231 533.162 475.485C518.703 478.272 504.135 480.717 489.386 481.796C468.199 482.911 447.274 486.408 426.078 487.37C412.111 488.116 398.615 491.559 385.129 494.67C370.029 498.445 354.638 501.223 339.568 505.089C326.834 508.469 313.69 510.222 300.655 512.407C289.044 514.231 277.574 516.812 265.863 518.124C255.495 519.14 245.027 519.571 234.61 518.879C220.593 517.962 206.605 516.281 192.518 516.425C182.893 516.578 173.257 515.706 163.631 516.335C152.542 516.856 141.423 516.443 130.333 517.153C120.327 517.755 110.3 517.099 100.304 516.587C89.0537 515.805 78.0445 513.386 67.1756 510.752C58.8335 508.739 50.2508 507.66 41.8886 505.691C28.5332 502.652 14.7466 501.583 1.00011 501.394L1.00011 528.031C8.53008 529.2 16.2405 529.182 23.6702 530.836Z" fill="#7A9BA8" stroke="#7A9BA8"/>
<path d="M753.998 427.139C744.904 430.025 735.389 431.868 725.763 432.533C731.659 429.8 737.775 427.508 743.931 425.305C760.916 418.851 778.182 413.007 795.699 407.829C802.727 405.546 809.997 403.972 817.366 402.975C807.209 407.407 796.621 410.958 786.103 414.643C775.245 418.482 764.977 423.543 753.998 427.139Z" fill="#7A9BA8" stroke="#7A9BA8"/>
<path d="M751.832 348.037C729.562 350.788 707.414 355.085 684.824 355.058C662.725 354.888 640.697 353.108 618.608 352.487C603.187 351.894 587.887 349.952 572.506 348.9C547.73 347.489 523.696 341.412 499.141 338.526C488.212 337.285 477.253 336.207 466.364 334.624C446.963 331.748 427.762 327.774 408.26 325.419C395.887 324.169 383.404 324.727 370.981 324.861C346.125 324.87 321.64 320.088 297.928 313.741C281.705 309.776 265.913 304.374 251.013 297.37C235.592 290.17 219.53 284.191 203.678 277.818C193.37 273.709 183.574 268.63 173.207 264.611C155.119 257.375 138.214 247.765 119.394 242.011C101.326 236.374 83.2181 230.855 65.2905 224.849C47.6236 219.626 29.9066 213.576 11.1268 212.677C21.5344 211.958 31.922 213.477 42.3195 212.821C53.6396 212.291 64.9696 213.477 76.2696 212.803C98.0774 212.354 119.845 210.726 141.473 208.263C151.198 207.553 160.653 205.288 170.068 203.13C190.844 198.213 211.799 193.906 232.885 190.239C246.561 187.847 260.568 187.982 274.315 186.13C283.269 185.15 292.082 183.424 300.976 182.175C311.243 180.754 321.28 178.237 331.607 177.113C343.017 175.369 354.407 173.49 365.848 171.917C386.362 168.034 407.278 166.083 427.722 161.885C437.287 160.617 446.652 158.226 456.318 157.614C477.745 155.879 499.161 153.066 519.676 147.078C538.135 142.449 555.22 134.466 573.148 128.523C595.828 121.278 617.816 112.378 640.637 105.473C658.634 99.6479 677.635 96.969 696.605 95.2879C716.357 93.3281 735.097 86.7206 754.84 84.6888C765.297 83.6101 775.534 81.2457 786.002 80.2569C798.054 78.5218 809.876 75.4293 822.108 74.7641C833.428 73.2358 844.868 73.038 856.269 72.4986C868.591 73.056 880.934 73.6493 893.167 75.1596C904.206 76.2204 915.064 78.378 926.024 79.8973C946.879 83.2235 967.283 88.4376 987.547 93.9125C1005.73 99.1086 1023.6 105.168 1041.53 111.029C1052.26 114.194 1063.05 117.196 1073.53 120.963C1083.58 124.154 1093.48 127.804 1102.77 132.524C1117.32 139.994 1132.74 145.946 1147.88 152.337C1164.68 161.022 1182.85 167.18 1200.39 174.515C1222.3 183.236 1243.08 194.266 1265.87 201.17C1295.4 210.088 1325.88 216.858 1356.98 219.366C1367.18 220.454 1377.45 219.617 1387.68 219.806C1397.05 219.968 1406.49 219.285 1415.8 220.489C1444.48 223.753 1472.49 230.378 1501.13 233.848C1512.79 234.891 1524.38 236.455 1535.99 237.84C1558.46 241.418 1580.81 245.742 1603.5 248.133C1616.42 249.158 1629.36 250.021 1642.25 251.361C1650.59 252.26 1659.01 252.314 1667.34 253.186C1674.7 253.95 1682.11 253.923 1689.51 253.941C1702.79 254.399 1716.05 255.721 1729.35 255.91C1737.23 255.802 1745.1 256.88 1752.97 256.089C1762.1 255.802 1771.2 255.091 1780.31 254.534C1774.55 256.575 1769.15 259.335 1763.47 261.537C1753.35 265.493 1743.11 269.259 1732.7 272.586C1711.1 279.31 1688.15 281.36 1665.43 282.376C1650.32 282.358 1635.22 283.463 1620.22 285.037C1612.27 286.052 1604.25 286.214 1596.24 286.178C1578.52 286.547 1560.8 286.808 1543.08 286.835C1528.54 286.852 1514.17 284.713 1499.72 283.706C1489.48 282.96 1479.28 281.71 1469.02 281.198C1457.59 280.623 1446.34 278.582 1434.95 277.629C1425.58 276.757 1416.14 276.892 1406.73 276.919C1395.3 276.955 1384.05 279.067 1372.67 279.679C1362.02 280.263 1351.44 281.53 1340.86 282.735C1329.06 284.147 1317.13 284.389 1305.31 285.729C1289.33 287.437 1273.15 287.707 1257.32 290.511C1248.54 291.986 1240 294.467 1231.18 295.833C1207.47 299.492 1184.44 305.938 1160.83 310.037C1143.34 313.768 1125.66 316.834 1107.88 319.126C1091.58 320.25 1075.78 324.142 1059.71 326.516C1025.51 330.462 990.946 330.579 956.525 330.13C923.066 330.444 889.036 328.314 856.198 335.362C844.898 337.573 833.418 338.823 822.048 340.675C808.221 342.841 794.174 343.309 780.247 344.684C770.782 345.898 761.236 346.527 751.832 348.037Z" fill="#7A9BA8" stroke="#7A9BA8"/>
</svg>
