<svg width="3840" height="2160" viewBox="0 0 3840 2160" fill="none" xmlns="http://www.w3.org/2000/svg">
<g clip-path="url(#clip0_33_290)">
<path d="M3840 0H0V2160H3840V0Z" fill="url(#paint0_radial_33_290)"/>


<path opacity="0.564" d="M1779.07 580.957C1780.58 580.957 1781.79 579.74 1781.79 578.238C1781.79 576.737 1780.58 575.519 1779.07 575.519C1777.57 575.519 1776.35 576.737 1776.35 578.238C1776.35 579.74 1777.57 580.957 1779.07 580.957Z" fill="#FAF9F6"/>
<path opacity="0.564" d="M1814.71 328.223C1816.98 328.223 1818.82 326.382 1818.82 324.111C1818.82 321.841 1816.98 320 1814.71 320C1812.44 320 1810.6 321.841 1810.6 324.111C1810.6 326.382 1812.44 328.223 1814.71 328.223Z" fill="#FAF9F6"/>
<path opacity="0.564" d="M1309.7 338.223C1311.97 338.223 1313.82 336.382 1313.82 334.112C1313.82 331.841 1311.97 330 1309.7 330C1307.43 330 1305.59 331.841 1305.59 334.112C1305.59 336.382 1307.43 338.223 1309.7 338.223Z" fill="#FAF9F6"/>
<path opacity="0.564" d="M1070.11 397.337C1072.38 397.337 1074.22 395.497 1074.22 393.226C1074.22 390.955 1072.38 389.114 1070.11 389.114C1067.84 389.114 1066 390.955 1066 393.226C1066 395.497 1067.84 397.337 1070.11 397.337Z" fill="#FAF9F6"/>
<path opacity="0.564" d="M1287.11 535.337C1289.38 535.337 1291.22 533.497 1291.22 531.226C1291.22 528.955 1289.38 527.114 1287.11 527.114C1284.84 527.114 1283 528.955 1283 531.226C1283 533.497 1284.84 535.337 1287.11 535.337Z" fill="#FAF9F6"/>
<path opacity="0.564" d="M1494.11 452.337C1496.38 452.337 1498.22 450.497 1498.22 448.226C1498.22 445.955 1496.38 444.114 1494.11 444.114C1491.84 444.114 1490 445.955 1490 448.226C1490 450.497 1491.84 452.337 1494.11 452.337Z" fill="#FAF9F6"/>
<path opacity="0.564" d="M1073.72 693.552C1075.22 693.552 1076.44 692.335 1076.44 690.833C1076.44 689.332 1075.22 688.114 1073.72 688.114C1072.22 688.114 1071 689.332 1071 690.833C1071 692.335 1072.22 693.552 1073.72 693.552Z" fill="#FAF9F6"/>
<path opacity="0.564" d="M1457.11 772.337C1459.38 772.337 1461.22 770.497 1461.22 768.226C1461.22 765.955 1459.38 764.114 1457.11 764.114C1454.84 764.114 1453 765.955 1453 768.226C1453 770.497 1454.84 772.337 1457.11 772.337Z" fill="#FAF9F6"/>
<path opacity="0.564" d="M809.074 135.957C810.575 135.957 811.793 134.74 811.793 133.238C811.793 131.737 810.575 130.519 809.074 130.519C807.572 130.519 806.355 131.737 806.355 133.238C806.355 134.74 807.572 135.957 809.074 135.957Z" fill="#FAF9F6"/>
<path opacity="0.564" d="M317.111 90.3373C319.382 90.3373 321.223 88.4965 321.223 86.2258C321.223 83.9551 319.382 82.1143 317.111 82.1143C314.841 82.1143 313 83.9551 313 86.2258C313 88.4965 314.841 90.3373 317.111 90.3373Z" fill="#FAF9F6"/>
<path opacity="0.564" d="M524.111 7.33734C526.382 7.33734 528.223 5.49653 528.223 3.2258C528.223 0.955065 526.382 -0.885742 524.111 -0.885742C521.841 -0.885742 520 0.955065 520 3.2258C520 5.49653 521.841 7.33734 524.111 7.33734Z" fill="#FAF9F6"/>
<path opacity="0.564" d="M103.719 248.552C105.22 248.552 106.438 247.335 106.438 245.833C106.438 244.332 105.22 243.114 103.719 243.114C102.217 243.114 101 244.332 101 245.833C101 247.335 102.217 248.552 103.719 248.552Z" fill="#FAF9F6"/>
<path opacity="0.564" d="M487.111 327.337C489.382 327.337 491.223 325.497 491.223 323.226C491.223 320.955 489.382 319.114 487.111 319.114C484.841 319.114 483 320.955 483 323.226C483 325.497 484.841 327.337 487.111 327.337Z" fill="#FAF9F6"/>
<path opacity="0.564" d="M1298.72 99.5519C1300.22 99.5519 1301.44 98.3347 1301.44 96.8331C1301.44 95.3315 1300.22 94.1143 1298.72 94.1143C1297.22 94.1143 1296 95.3315 1296 96.8331C1296 98.3347 1297.22 99.5519 1298.72 99.5519Z" fill="#FAF9F6"/>
<path opacity="0.564" d="M1682.11 178.337C1684.38 178.337 1686.22 176.497 1686.22 174.226C1686.22 171.955 1684.38 170.114 1682.11 170.114C1679.84 170.114 1678 171.955 1678 174.226C1678 176.497 1679.84 178.337 1682.11 178.337Z" fill="#FAF9F6"/>
<path opacity="0.564" d="M2757.07 110.957C2758.58 110.957 2759.79 109.74 2759.79 108.238C2759.79 106.737 2758.58 105.519 2757.07 105.519C2755.57 105.519 2754.35 106.737 2754.35 108.238C2754.35 109.74 2755.57 110.957 2757.07 110.957Z" fill="#FAF9F6"/>
<path opacity="0.564" d="M2265.11 65.3373C2267.38 65.3373 2269.22 63.4965 2269.22 61.2258C2269.22 58.9551 2267.38 57.1143 2265.11 57.1143C2262.84 57.1143 2261 58.9551 2261 61.2258C2261 63.4965 2262.84 65.3373 2265.11 65.3373Z" fill="#FAF9F6"/>
<path opacity="0.564" d="M2051.72 223.552C2053.22 223.552 2054.44 222.335 2054.44 220.833C2054.44 219.332 2053.22 218.114 2051.72 218.114C2050.22 218.114 2049 219.332 2049 220.833C2049 222.335 2050.22 223.552 2051.72 223.552Z" fill="#FAF9F6"/>
<path opacity="0.564" d="M2435.11 302.337C2437.38 302.337 2439.22 300.497 2439.22 298.226C2439.22 295.955 2437.38 294.114 2435.11 294.114C2432.84 294.114 2431 295.955 2431 298.226C2431 300.497 2432.84 302.337 2435.11 302.337Z" fill="#FAF9F6"/>
<path opacity="0.564" d="M2866.07 771.957C2867.58 771.957 2868.79 770.74 2868.79 769.238C2868.79 767.737 2867.58 766.519 2866.07 766.519C2864.57 766.519 2863.35 767.737 2863.35 769.238C2863.35 770.74 2864.57 771.957 2866.07 771.957Z" fill="#FAF9F6"/>
<path opacity="0.564" d="M2901.71 519.223C2903.98 519.223 2905.82 517.382 2905.82 515.111C2905.82 512.841 2903.98 511 2901.71 511C2899.44 511 2897.6 512.841 2897.6 515.111C2897.6 517.382 2899.44 519.223 2901.71 519.223Z" fill="#FAF9F6"/>
<path opacity="0.564" d="M2396.7 529.223C2398.97 529.223 2400.82 527.382 2400.82 525.112C2400.82 522.841 2398.97 521 2396.7 521C2394.43 521 2392.59 522.841 2392.59 525.112C2392.59 527.382 2394.43 529.223 2396.7 529.223Z" fill="#FAF9F6"/>
<path opacity="0.564" d="M2157.11 588.337C2159.38 588.337 2161.22 586.497 2161.22 584.226C2161.22 581.955 2159.38 580.114 2157.11 580.114C2154.84 580.114 2153 581.955 2153 584.226C2153 586.497 2154.84 588.337 2157.11 588.337Z" fill="#FAF9F6"/>
<path opacity="0.564" d="M2374.11 726.337C2376.38 726.337 2378.22 724.497 2378.22 722.226C2378.22 719.955 2376.38 718.114 2374.11 718.114C2371.84 718.114 2370 719.955 2370 722.226C2370 724.497 2371.84 726.337 2374.11 726.337Z" fill="#FAF9F6"/>
<path opacity="0.564" d="M2581.11 643.337C2583.38 643.337 2585.22 641.497 2585.22 639.226C2585.22 636.955 2583.38 635.114 2581.11 635.114C2578.84 635.114 2577 636.955 2577 639.226C2577 641.497 2578.84 643.337 2581.11 643.337Z" fill="#FAF9F6"/>
<path opacity="0.564" d="M2160.72 884.552C2162.22 884.552 2163.44 883.335 2163.44 881.833C2163.44 880.332 2162.22 879.114 2160.72 879.114C2159.22 879.114 2158 880.332 2158 881.833C2158 883.335 2159.22 884.552 2160.72 884.552Z" fill="#FAF9F6"/>
<path opacity="0.564" d="M2544.11 963.337C2546.38 963.337 2548.22 961.497 2548.22 959.226C2548.22 956.955 2546.38 955.114 2544.11 955.114C2541.84 955.114 2540 956.955 2540 959.226C2540 961.497 2541.84 963.337 2544.11 963.337Z" fill="#FAF9F6"/>
<g opacity="0.67841">
<g opacity="0.69312" filter="url(#filter0_f_33_290)">



<path d="M149.445 882.457C149.445 729.87 384.689 862.725 435.564 956.954C489.754 880.674 623.002 864.135 675.184 931.421C755.209 930.676 775.153 1045.9 831.218 955.996C917.323 870.961 1001.1 1000.14 1019.83 1049.25C1075.44 1052.79 1120.39 1008.42 1156.92 1059.55C1218.8 1015.94 1266.36 1086.48 1336.48 1060.84C1392.62 1111.24 1506.36 1080.24 1511.59 1145.44C1596.5 1156.23 1692 1146.81 1692 1208.93H141.869C-120.385 1151.05 -123.094 1005.89 149.445 882.417V882.457Z" fill="url(#paint1_radial_33_290)"/>
</g>
<g filter="url(#filter1_f_33_290)">
<path d="M845.205 947.172C803.926 916.611 769.243 1002.39 758.075 921.841C693.693 938.311 640.553 1071.03 572.086 964.658C514.506 909.42 430.15 927.797 389.489 965.203C312.309 964.822 239.982 1050.31 174.157 999.232C101.118 1070.1 -14.5859 1117.79 -94.4078 1107.09C-146.33 1174.33 -250.866 1023.24 -281.727 1131.88C-396.569 1095.62 -381.148 1275.62 -454 1275.29C-349.163 1296.61 -278.261 1193.69 -177.94 1178.55C-68.3252 1140.23 54.1996 1143.59 160.573 1190.08C311.766 1215.79 464.552 1171.86 616.963 1182.54C1285.57 1298.57 1007.68 860.266 845.205 947.517V947.172Z" fill="url(#paint2_radial_33_290)"/>
</g>
<g filter="url(#filter2_f_33_290)">
<path d="M1186.83 1121.4C1156.25 1058.11 1077.49 1044.11 1016.24 1055.46C970.013 1048.87 925.588 1011.11 873.162 1031.95C828.373 1045.44 790.45 1073.64 743.233 1050.71C675.669 1044.31 604.52 1068.48 557.428 1120.25C553.173 1164.97 608.776 1165.35 638.506 1160.63C694.234 1154.51 749.633 1139.45 805.951 1144.53C921.174 1131.05 1033.23 1184.32 1148.2 1170.36C1164.83 1167.55 1181.15 1162.43 1196.27 1154.65" fill="url(#paint3_radial_33_290)"/>
</g>
</g>
<g opacity="0.62434" filter="url(#filter3_f_33_290)">
<path d="M2485.26 1026.29C2490.48 1018.84 2493.95 983.073 2502.13 968.135C2509.6 954.489 2539.22 982.089 2542.67 984.337C2561.7 996.735 2573.12 1001.42 2589.64 986.086C2602.47 974.168 2619.68 978.383 2636.92 979.026C2641.34 979.19 2636.96 938.982 2653.25 935.557C2673.38 931.309 2690.07 942.799 2708.8 943.497C2735.56 944.493 2728.57 972.485 2741.74 927.091C2747.35 907.724 2755.27 908.227 2771.96 904.713C2783.26 902.328 2808.79 935.23 2817.5 944.616C2832.25 960.491 2838.84 965.973 2860.76 966.79C2893.28 968.001 2892.29 963.091 2919.14 977.785C2946.31 992.658 2938.04 1017.57 2971.42 994.425C2992.04 980.137 3004.11 971.807 3020.03 952.159C3030.96 938.653 3029.3 921.114 3039.28 908.789C3050.82 894.537 3076.71 902.359 3092.54 899.021C3114.67 894.359 3119.84 876.617 3120.61 855.979C3121.35 835.995 3160.11 842.758 3173.98 843.275C3187.07 843.762 3211.38 871.351 3216.81 877.195C3228.26 889.54 3234.87 901.184 3247.56 919.487C3259.78 937.108 3264.35 948.853 3275.27 964.596C3280.25 971.785 3311.54 978.758 3321.26 992.763C3333.08 1009.82 3317.01 1027.87 3304.82 1039.17C3284.72 1057.84 3237.63 1030.7 3213.18 1053.4C3194.07 1071.13 3173.25 1073.75 3155.77 1095.34C3141.69 1112.74 3129.69 1126.62 3115.76 1143.81C3098.84 1164.7 3078.68 1163 3053.36 1162.05C3007.32 1160.34 2947.36 1128.36 2902.26 1115.29C2873.75 1107.02 2838.53 1109.97 2808.45 1108.85L2705.71 1105.03C2671.51 1103.75 2628.85 1107.21 2597.22 1098.05C2572.55 1090.89 2560.33 1085.04 2545.59 1063.8C2536.39 1050.52 2516.06 1042.62 2502.44 1038.68C2489.01 1034.78 2489.34 1045.57 2485.26 1026.29Z" fill="url(#paint4_radial_33_290)"/>
</g>
<path opacity="0.564" d="M3558.63 797.394C3560.91 797.394 3562.75 795.553 3562.75 793.283C3562.75 791.012 3560.91 789.171 3558.63 789.171C3556.36 789.171 3554.52 791.012 3554.52 793.283C3554.52 795.553 3556.36 797.394 3558.63 797.394Z" fill="#FAF9F6"/>
<path opacity="0.564" d="M3631.49 920.253C3633.76 920.253 3635.6 918.412 3635.6 916.141C3635.6 913.871 3633.76 912.03 3631.49 912.03C3629.22 912.03 3627.38 913.871 3627.38 916.141C3627.38 918.412 3629.22 920.253 3631.49 920.253Z" fill="#FAF9F6"/>
<g opacity="0.55026" filter="url(#filter4_f_33_290)">
<path d="M3290.2 1072.47C3297.25 1050.86 3324.75 1046.78 3335.16 1019.06C3363.01 964.904 3427.37 978.077 3471.63 991.923C3493.23 998.975 3533.19 1006.55 3552.48 991.655C3571.78 976.757 3648.72 1007.73 3653.82 954.825C3658.91 901.916 3664.01 849.007 3698.32 850.285C3732.63 851.563 3758.52 827.54 3772.27 793.694C3786.03 759.849 3814.57 748.418 3841.83 771.298C3869.09 794.177 3898.55 842.126 3906.97 867.427C3915.4 892.729 3887.74 1132.2 3887.74 1132.2L3207.82 1103.75C3207.82 1103.75 3258.77 1077.54 3290.2 1072.47Z" fill="url(#paint5_radial_33_290)"/>
</g>
<g opacity="0.55026" filter="url(#filter5_f_33_290)">
<path d="M3063.24 1075.07C3082.37 1036.02 3123.72 993.381 3171.76 1008.42C3219.81 1023.47 3229.13 1010.56 3243.02 993.406C3256.92 976.252 3262.81 936.708 3280.62 932.954C3298.43 929.199 3373.12 940.817 3373.12 940.817C3373.12 940.817 3365.94 896.369 3380.16 870.39C3394.38 844.412 3447.66 837.56 3487.37 839.039C3527.08 840.518 3573.51 780.394 3596.06 767.98C3618.62 755.566 3653.76 761.293 3684.64 762.443C3715.53 763.594 3763.41 783.049 3781.88 761.647C3800.35 740.245 3837.13 701.852 3855.27 689.273C3873.42 676.695 3940.75 648.276 3948.92 666.253C3957.09 684.229 3959.53 737.337 3976.36 760.054C3993.18 782.772 4020.78 872.161 4020.78 872.161L4005.2 1172.01L2999.65 1121.3L3063.24 1075.07Z" fill="url(#paint6_radial_33_290)"/>
</g>
<path fill-rule="evenodd" clip-rule="evenodd" d="M-273 2240V974.859L-108.388 978.087L1.35268 1010.36L114.321 1003.91L246.656 978.087L437.089 997.451L493.857 1023.63L571.456 1030.48L710.677 1009.94L811.099 911.809L877.286 888.987H986.837L1059.87 847.909L1192.25 834.217L1283.54 793.139L1379.39 724.675L1420.48 656.212L1479.82 665.34L1539.16 651.647L1593.93 619.698L1689.79 551.234L1749.13 532.977L1826.73 528.413L1881.5 450.821L1949.97 428L2018.44 446.257L2054.96 487.335L2123.43 510.156L2186.49 555.298L2215.54 606.936L2263.96 613.391L2331.74 632.755L2347.87 658.574L2409.2 671.484L2522.17 706.985L2560.9 777.988L2599.63 797.353L2625.46 826.399L2670.64 813.49L2702.92 836.081L2761.02 810.262L2806.21 819.944L2841.71 845.764L2870.76 878.037L2899.81 919.994L2999.87 952.268L3112.83 958.723L3167.71 939.358L3258.08 897.402L3345.23 890.947L3390.42 848.991H3464.65L3513.07 881.265L3622.81 868.355L3700.27 887.72L3751.92 923.221L3851.97 939.358L3922.98 968.405L3987.54 949.04L4065 952.268V2240H-273Z" fill="#3D3D3D"/>
<path fill-rule="evenodd" clip-rule="evenodd" d="M-132 2162V958.999L24.529 962.068L329.805 1086.2L306.85 1018.43L362.141 962.068L543.223 980.482L666.524 1091.41L705.484 1074.01L888.697 1085.76L1300.56 1206.45L1528.28 1218.2L1611.65 1189.4L1588.65 1104.77L1510.93 1050.85L1594.84 1018.36L1611.15 997.866L1709.51 974.323L1780.56 867.266L1835.78 843.858L1845.47 741.777L1921.64 727.549L1890.86 662.14L1933.3 647.368L1937.88 584.809L2007.22 540.356L1965.23 529.878L1960.06 473.611L1981.82 439L2046.93 456.36L2081.65 495.421L2146.76 517.121L2206.73 560.045L2234.35 609.147L2280.39 615.285L2344.84 633.698L2360.19 658.249L2418.5 670.525L2525.92 704.282L2562.75 771.798L2599.58 790.211L2624.14 817.831L2667.11 805.555L2716.59 836.617L2753.04 802.487L2796.01 811.693L2829.77 836.244L2857.4 866.933L2885.02 906.828L2980.17 937.517L3087.59 943.655L3156.64 926.776L3225.7 885.346L3347.09 905.791L3366.73 850.163L3422.13 839.313L3468.17 870.002L3572.52 857.726L3646.18 876.14L3695.29 909.897L3790.43 925.242L3886.06 962.441L3919.34 934.448L3993 937.517V2162H-132Z" fill="#313131"/>
<path fill-rule="evenodd" clip-rule="evenodd" d="M-7 2303.14V1403.14L107.286 1388.86L198.714 1406L321.571 1491.71L455.857 1474.57L633 1406L841.571 1306L1015.86 1326L1201.57 1331.71L1510.14 1400.29L1587.29 1463.14L1675.86 1491.71L1841.57 1486L1924.43 1506L2027.29 1494.57L2198.71 1523.14L2338.71 1506L2404.43 1554.57L2438.71 1548.86L2498.71 1520.29L2515.86 1471.71L2575.86 1448.86L2650.14 1440.29L2727.29 1454.57L2887.29 1431.71L3107.29 1420.29L3281.57 1448.86L3387.29 1440.29L3513 1474.57L3584.43 1508.86L3653 1563.14L3730.14 1620.29L3833 1597.43V2303.14H-7Z" fill="#363636"/>
<path fill-rule="evenodd" clip-rule="evenodd" d="M3897.53 2136.06L3897.53 1236.06L3783.25 1221.77L3691.82 1238.92L3568.96 1324.63L3434.68 1307.49L3257.53 1238.92L3048.96 1138.92L2874.68 1158.92L2688.96 1164.63L2380.39 1233.2L2303.25 1296.06L2214.68 1324.63L2048.96 1318.92L1966.1 1338.92L1863.25 1327.49L1691.82 1356.06L1551.82 1338.92L1486.1 1387.49L1451.82 1381.77L1391.82 1353.2L1374.68 1304.63L1314.68 1281.77L1240.39 1273.2L1163.25 1287.49L1003.25 1264.63L783.248 1253.2L608.962 1281.77L503.248 1273.2L377.533 1307.49L306.105 1341.77L237.533 1396.06L160.391 1453.2L57.5334 1430.35L57.5334 2136.06L3897.53 2136.06Z" fill="#363636"/>
<path fill-rule="evenodd" clip-rule="evenodd" d="M0 2160V1765.72L131.429 1794.29L365.714 1805.72L634.286 1748.58L754.286 1822.86L880 1834.29L1042.86 1700L1382.86 1634.29L1542.86 1662.86L1680 1702.86L1988.57 1662.86L2177.14 1685.72L2348.57 1748.58L2474.29 1685.72L2622.86 1640L2828.57 1560H3000L3080 1497.15L3222.86 1491.43L3411.43 1571.43L3588.57 1605.72L3840 1634.29V2160H0Z" fill="#2E2E2E"/>
<path fill-rule="evenodd" clip-rule="evenodd" d="M0 2160V1428.57L71.4286 1451.43L137.143 1485.72L242.857 1517.15H308.571L440 1542.86L614.286 1568.57L682.857 1620L734.286 1671.43L800 1691.43L931.429 1677.15L1042.86 1700L1162.86 1742.86L1248.57 1791.43L1362.86 1808.57L1497.14 1817.15L1588.57 1851.43L1657.14 1860L1694.29 1894.29L1860 1934.29L1902.86 1980L1985.71 2014.29L2080 2045.72L2148.57 2077.15L2234.29 2091.43L2302.86 2160H2608.57H3297.14L3434.29 2097.15L3597.14 2054.29L3677.14 1974.29L3840 1922.86V2160H0Z" fill="#2E2E2E"/>
<path opacity="0.564" d="M3761.07 292.843C3762.58 292.843 3763.79 291.625 3763.79 290.124C3763.79 288.622 3762.58 287.405 3761.07 287.405C3759.57 287.405 3758.35 288.622 3758.35 290.124C3758.35 291.625 3759.57 292.843 3761.07 292.843Z" fill="#FAF9F6"/>
<path opacity="0.564" d="M3796.71 40.1087C3798.98 40.1087 3800.82 38.268 3800.82 35.9972C3800.82 33.7265 3798.98 31.8857 3796.71 31.8857C3794.44 31.8857 3792.6 33.7265 3792.6 35.9972C3792.6 38.268 3794.44 40.1087 3796.71 40.1087Z" fill="#FAF9F6"/>
<path opacity="0.564" d="M3291.7 50.1089C3293.97 50.1089 3295.82 48.2682 3295.82 45.9975C3295.82 43.7267 3293.97 41.886 3291.7 41.886C3289.43 41.886 3287.59 43.7267 3287.59 45.9975C3287.59 48.2682 3289.43 50.1089 3291.7 50.1089Z" fill="#FAF9F6"/>
<path opacity="0.564" d="M3052.11 109.223C3054.38 109.223 3056.22 107.382 3056.22 105.112C3056.22 102.841 3054.38 101 3052.11 101C3049.84 101 3048 102.841 3048 105.112C3048 107.382 3049.84 109.223 3052.11 109.223Z" fill="#FAF9F6"/>
<path opacity="0.564" d="M3269.11 247.223C3271.38 247.223 3273.22 245.382 3273.22 243.112C3273.22 240.841 3271.38 239 3269.11 239C3266.84 239 3265 240.841 3265 243.112C3265 245.382 3266.84 247.223 3269.11 247.223Z" fill="#FAF9F6"/>
<path opacity="0.564" d="M3476.11 164.223C3478.38 164.223 3480.22 162.382 3480.22 160.112C3480.22 157.841 3478.38 156 3476.11 156C3473.84 156 3472 157.841 3472 160.112C3472 162.382 3473.84 164.223 3476.11 164.223Z" fill="#FAF9F6"/>
<path opacity="0.564" d="M3055.72 405.438C3057.22 405.438 3058.44 404.22 3058.44 402.719C3058.44 401.217 3057.22 400 3055.72 400C3054.22 400 3053 401.217 3053 402.719C3053 404.22 3054.22 405.438 3055.72 405.438Z" fill="#FAF9F6"/>
<path opacity="0.564" d="M3439.11 484.223C3441.38 484.223 3443.22 482.382 3443.22 480.112C3443.22 477.841 3441.38 476 3439.11 476C3436.84 476 3435 477.841 3435 480.112C3435 482.382 3436.84 484.223 3439.11 484.223Z" fill="#FAF9F6"/>
<path opacity="0.564" d="M761.074 785.957C762.575 785.957 763.793 784.74 763.793 783.238C763.793 781.737 762.575 780.519 761.074 780.519C759.572 780.519 758.355 781.737 758.355 783.238C758.355 784.74 759.572 785.957 761.074 785.957Z" fill="#FAF9F6"/>
<path opacity="0.564" d="M796.707 533.223C798.977 533.223 800.818 531.382 800.818 529.111C800.818 526.841 798.977 525 796.707 525C794.436 525 792.595 526.841 792.595 529.111C792.595 531.382 794.436 533.223 796.707 533.223Z" fill="#FAF9F6"/>
<path opacity="0.564" d="M291.704 543.223C293.975 543.223 295.815 541.382 295.815 539.112C295.815 536.841 293.975 535 291.704 535C289.433 535 287.593 536.841 287.593 539.112C287.593 541.382 289.433 543.223 291.704 543.223Z" fill="#FAF9F6"/>
<path opacity="0.564" d="M52.1115 602.337C54.3822 602.337 56.223 600.497 56.223 598.226C56.223 595.955 54.3822 594.114 52.1115 594.114C49.8407 594.114 48 595.955 48 598.226C48 600.497 49.8407 602.337 52.1115 602.337Z" fill="#FAF9F6"/>
<path opacity="0.564" d="M269.111 740.337C271.382 740.337 273.223 738.497 273.223 736.226C273.223 733.955 271.382 732.114 269.111 732.114C266.841 732.114 265 733.955 265 736.226C265 738.497 266.841 740.337 269.111 740.337Z" fill="#FAF9F6"/>
<path opacity="0.564" d="M476.111 657.337C478.382 657.337 480.223 655.497 480.223 653.226C480.223 650.955 478.382 649.114 476.111 649.114C473.841 649.114 472 650.955 472 653.226C472 655.497 473.841 657.337 476.111 657.337Z" fill="#FAF9F6"/>
<path opacity="0.564" d="M55.7188 898.552C57.2204 898.552 58.4377 897.335 58.4377 895.833C58.4377 894.332 57.2204 893.114 55.7188 893.114C54.2173 893.114 53 894.332 53 895.833C53 897.335 54.2173 898.552 55.7188 898.552Z" fill="#FAF9F6"/>
<path opacity="0.564" d="M439.111 977.337C441.382 977.337 443.223 975.497 443.223 973.226C443.223 970.955 441.382 969.114 439.111 969.114C436.841 969.114 435 970.955 435 973.226C435 975.497 436.841 977.337 439.111 977.337Z" fill="#FAF9F6"/>
</g>
<defs>
<filter id="filter0_f_33_290" x="-75.7816" y="792.115" width="1788.67" height="437.705" filterUnits="userSpaceOnUse" color-interpolation-filters="sRGB">
<feFlood flood-opacity="0" result="BackgroundImageFix"/>
<feBlend mode="normal" in="SourceGraphic" in2="BackgroundImageFix" result="shape"/>
<feGaussianBlur stdDeviation="10.4435" result="effect1_foregroundBlur_33_290"/>
</filter>
<filter id="filter1_f_33_290" x="-477.894" y="897.947" width="1544.8" height="404.136" filterUnits="userSpaceOnUse" color-interpolation-filters="sRGB">
<feFlood flood-opacity="0" result="BackgroundImageFix"/>
<feBlend mode="normal" in="SourceGraphic" in2="BackgroundImageFix" result="shape"/>
<feGaussianBlur stdDeviation="11.947" result="effect1_foregroundBlur_33_290"/>
</filter>
<filter id="filter2_f_33_290" x="541.659" y="1010.21" width="670.152" height="178.045" filterUnits="userSpaceOnUse" color-interpolation-filters="sRGB">
<feFlood flood-opacity="0" result="BackgroundImageFix"/>
<feBlend mode="normal" in="SourceGraphic" in2="BackgroundImageFix" result="shape"/>
<feGaussianBlur stdDeviation="7.76906" result="effect1_foregroundBlur_33_290"/>
</filter>
<filter id="filter3_f_33_290" x="2468.26" y="824.755" width="874.142" height="354.793" filterUnits="userSpaceOnUse" color-interpolation-filters="sRGB">
<feFlood flood-opacity="0" result="BackgroundImageFix"/>
<feBlend mode="normal" in="SourceGraphic" in2="BackgroundImageFix" result="shape"/>
<feGaussianBlur stdDeviation="8.50354" result="effect1_foregroundBlur_33_290"/>
</filter>
<filter id="filter4_f_33_290" x="3190.98" y="742.534" width="734.431" height="406.506" filterUnits="userSpaceOnUse" color-interpolation-filters="sRGB">
<feFlood flood-opacity="0" result="BackgroundImageFix"/>
<feBlend mode="normal" in="SourceGraphic" in2="BackgroundImageFix" result="shape"/>
<feGaussianBlur stdDeviation="8.41849" result="effect1_foregroundBlur_33_290"/>
</filter>
<filter id="filter5_f_33_290" x="2970.01" y="630.809" width="1080.42" height="570.847" filterUnits="userSpaceOnUse" color-interpolation-filters="sRGB">
<feFlood flood-opacity="0" result="BackgroundImageFix"/>
<feBlend mode="normal" in="SourceGraphic" in2="BackgroundImageFix" result="shape"/>
<feGaussianBlur stdDeviation="14.823" result="effect1_foregroundBlur_33_290"/>
</filter>
<radialGradient id="paint0_radial_33_290" cx="0" cy="0" r="1" gradientUnits="userSpaceOnUse" gradientTransform="translate(-238.396 862.964) scale(9685.51 1492.12)">
<stop stop-color="#2E2E2E"/>
<stop offset="1" stop-color="#2E2E2E"/>
</radialGradient>
<radialGradient id="paint1_radial_33_290" cx="0" cy="0" r="1" gradientUnits="userSpaceOnUse" gradientTransform="translate(993.835 929.388) rotate(4.69756) scale(2527.81 175.969)">
<stop stop-color="white"/>
<stop offset="1" stop-color="white" stop-opacity="0"/>
</radialGradient>
<radialGradient id="paint2_radial_33_290" cx="0" cy="0" r="1" gradientUnits="userSpaceOnUse" gradientTransform="translate(513.778 896.506) rotate(178.097) scale(1653.4 218.66)">
<stop stop-color="white"/>
<stop offset="1" stop-color="white" stop-opacity="0"/>
</radialGradient>
<radialGradient id="paint3_radial_33_290" cx="0" cy="0" r="1" gradientUnits="userSpaceOnUse" gradientTransform="translate(916.997 984.479) rotate(179.999) scale(678.633 139.647)">
<stop stop-color="white"/>
<stop offset="1" stop-color="white" stop-opacity="0"/>
</radialGradient>
<radialGradient id="paint4_radial_33_290" cx="0" cy="0" r="1" gradientUnits="userSpaceOnUse" gradientTransform="translate(2890.92 929.397) rotate(-1.24187) scale(792.382 172.641)">
<stop stop-color="white"/>
<stop offset="1" stop-color="white" stop-opacity="0"/>
</radialGradient>
<radialGradient id="paint5_radial_33_290" cx="0" cy="0" r="1" gradientUnits="userSpaceOnUse" gradientTransform="translate(3458.95 793.298) rotate(2.13297) scale(623.977 334.835)">
<stop stop-color="white"/>
<stop offset="1" stop-color="white" stop-opacity="0"/>
</radialGradient>
<radialGradient id="paint6_radial_33_290" cx="0" cy="0" r="1" gradientUnits="userSpaceOnUse" gradientTransform="translate(3517.77 796.015) rotate(77.1311) scale(333.425 739.911)">
<stop stop-color="white"/>
<stop offset="1" stop-color="white" stop-opacity="0"/>
</radialGradient>
<clipPath id="clip0_33_290">
<rect width="3840" height="2160" fill="white"/>
</clipPath>
</defs>
</svg>
