<svg width="4137" height="684" viewBox="0 0 4137 684" fill="none" xmlns="http://www.w3.org/2000/svg">
<g clip-path="url(#clip0_42_2)">
<path d="M1169.61 177.925C1191.92 175.807 1214.52 173.588 1237.77 173.534C1270.14 173.34 1302.23 175.165 1334.39 176.216C1376.61 178.597 1419.59 179.779 1460.64 184.255C1499.6 188.02 1536.07 194.32 1573.61 199.499C1591.78 202.707 1610.27 205.659 1628.33 208.961C1649.21 212.763 1671.27 215.832 1690.69 220.601C1710.56 225.456 1729.76 230.666 1748.03 236.27C1773.04 243.908 1799.87 250.725 1825.83 257.922C1847.37 264.261 1870.15 270.05 1894.21 275.098C1918.97 280.764 1945.85 285.055 1972.22 289.646C1992.39 293.488 2013.34 296.773 2034.71 299.672C2003.39 299.965 1972.5 297.925 1941.46 296.812C1915.85 295.683 1889.91 295.39 1864.64 293.41C1839.9 291.424 1815.41 288.997 1790.29 287.714C1752.57 285.751 1715.98 281.676 1678.14 280.045C1654.2 278.685 1629.92 278.871 1605.83 278.213C1580.99 277.525 1556.11 277.17 1531.35 276.258C1483.5 275.338 1435.61 274.402 1388.06 272.222C1354.67 270.692 1321.03 270.267 1287.49 269.347C1265.19 268.767 1242.82 269.092 1220.5 268.992C1193.87 268.876 1167.33 269.664 1140.84 270.445C1118.17 271.187 1095.33 271.898 1073.24 273.97C1039.92 277.193 1006.56 280.409 972.633 282.682C947.319 284.397 921.403 284.366 896.087 286.083C870.601 287.559 845.524 289.808 820.039 291.285C792.507 292.823 765.19 294.848 737.702 296.479C718.911 297.484 700.463 299.116 681.843 300.414C645.228 303.166 607.3 303.197 571.35 307.146C534.175 310.679 500.339 317.42 464.218 321.996C427.3 327.044 391.718 333.506 353.275 337.015C331.233 338.925 308.457 339.257 286.243 340.834C264.395 342.226 243.364 344.962 221.365 346.083C182.382 347.985 144.13 351.462 104.975 352.954C84.3966 353.813 63.6245 353.558 42.9813 353.124C29.2693 352.746 15.4068 352.36 2.14697 350.976V246.907C16.2463 252.04 31.96 256.6 48.1473 260.86C67.4345 265.946 89.4982 269.332 110.68 273.212C131.732 277.054 154.506 279.759 177.969 280.803C197.127 281.676 216.371 282.357 235.506 283.277C255.268 284.119 275.049 285.557 295.047 285.031C315.26 284.56 335.408 283.771 355.557 283.022C386.875 281.599 418.239 279.543 449.946 279.899C477.026 280.324 504.04 279.203 530.818 277.881C563.581 276.343 594.513 272.006 626.198 268.86C656.68 265.188 687.805 261.88 716.176 256.338C754.405 249.118 790.268 240.398 828.841 233.41C865.198 226.593 902.137 220.184 938.148 213.142C959.675 209.478 980.941 205.613 1002.96 202.336C1039.9 196.84 1076.73 191.243 1113.6 185.669C1131.77 182.647 1150.18 179.749 1169.61 177.925Z" fill="#9AB2BB" stroke="#9AB2BB"/>
<path d="M3566.45 204.587C3588.71 203.713 3611.19 203.342 3633.56 203.937C3663.64 204.725 3693.67 206.171 3723.92 206.047C3744.58 205.916 3765.27 206.666 3785.95 206.125C3809.73 205.676 3833.61 206.031 3857.41 205.421C3878.9 204.903 3900.44 205.468 3921.88 205.908C3946.04 206.581 3969.67 208.66 3993.01 210.924C4010.92 212.656 4029.36 213.583 4047.3 215.277C4075.96 217.889 4105.57 218.809 4135.09 218.971V467.801C4127.81 467.622 4120.56 467.422 4113.34 467.228C4073.02 466.455 4034.98 461.253 3997.07 456.762C3958.57 451.598 3919.69 446.852 3880.9 442.005C3840.5 437.058 3804.22 428.795 3765.38 422.573C3743.12 419.117 3722.1 414.749 3699.96 411.217C3665.94 405.736 3631.44 400.596 3598.33 394.404C3566.34 388.383 3532.44 383.737 3497.62 380.327C3446.72 374.87 3394.14 370.758 3340.77 370.766C3314.11 370.882 3287.32 371.361 3260.76 370.286C3218.87 368.262 3177.65 364.844 3136 362.371C3112.63 361.011 3089.1 360.082 3065.65 359.016C3012.93 356.535 2961.34 351.309 2908.14 350.096C2875.12 349.191 2842.27 347.522 2809.17 347.011C2761.74 346.478 2714.45 344.948 2667 344.801C2618.5 344.778 2570.95 348.473 2523.14 350.838C2502.96 352.136 2482.46 352.678 2462.15 353.721C2432.24 354.904 2402.1 355.305 2372.41 357.168C2348 358.761 2323.35 359.835 2299.09 361.737C2228.59 367.797 2155.53 365.965 2083.7 366.236C2009.81 365.849 1935.61 365.95 1862.18 369.344C1827.68 371.384 1793.75 374.731 1758.77 375.698C1720.59 377.668 1682.64 380.305 1645.1 383.512C1594.4 387.037 1544.96 392.58 1494.05 395.726C1475.13 396.901 1456.79 399.034 1437.93 400.302C1403.94 402.714 1369.22 402.946 1334.91 404.414C1309.53 405.566 1283.92 405.775 1258.58 406.989C1235.87 408.024 1213.16 409.114 1190.3 409.616C1165.87 410.142 1141.72 411.959 1117.18 411.99C1096.97 412.013 1076.71 412.129 1056.58 411.379C1032.13 410.56 1007.98 408.805 983.438 408.31C961.418 407.869 939.526 406.795 917.549 406.154C886.51 405.288 855.664 403.449 824.45 403.464C786.414 403.487 748.357 403.711 710.321 404.028C693.123 403.997 675.9 404.136 658.831 405.009C626.63 406.362 594.212 407.313 561.771 407.298C513.016 408.172 463.743 409.934 417.356 415.715C395.012 418.575 373.034 421.814 351.293 425.215C339.11 427.11 327.508 429.483 315.153 431.237C291.473 431.817 268.248 433.672 244.785 434.824C199.086 437.151 153.688 440.397 107.537 441.341C72.1486 442.16 37.1908 444.394 2.14697 446.272V350.977C15.4068 352.36 29.2693 352.747 42.9813 353.126C63.6245 353.559 84.3966 353.813 104.975 352.956C144.13 351.464 182.382 347.986 221.365 346.084C243.364 344.963 264.395 342.226 286.243 340.836C308.457 339.259 331.233 338.926 353.275 337.016C391.718 333.507 427.3 327.045 464.218 321.997C500.339 317.421 534.175 310.681 571.35 307.148C607.3 303.197 645.228 303.167 681.843 300.415C700.463 299.116 718.911 297.486 737.702 296.48C765.19 294.849 792.507 292.824 820.039 291.286C845.524 289.81 870.601 287.56 896.087 286.084C921.403 284.367 947.319 284.398 972.633 282.682C1006.56 280.41 1039.92 277.194 1073.24 273.971C1095.33 271.899 1118.17 271.188 1140.84 270.446C1167.33 269.665 1193.87 268.876 1220.5 268.993C1242.82 269.093 1265.19 268.769 1287.49 269.348C1321.03 270.268 1354.67 270.693 1388.06 272.224C1435.61 274.403 1483.5 275.339 1531.35 276.259C1556.11 277.171 1580.99 277.527 1605.83 278.214C1629.92 278.871 1654.2 278.686 1678.14 280.046C1715.98 281.678 1752.57 285.751 1790.29 287.714C1815.41 288.998 1839.9 291.425 1864.64 293.411C1889.91 295.39 1915.85 295.684 1941.46 296.812C1972.5 297.926 2003.39 299.967 2034.71 299.672C2052.45 300.392 2070.38 300.198 2088.16 300.802C2110.42 301.219 2132.52 302.285 2154.74 302.85L2181.55 304.195C2220.86 303.546 2259.61 306.955 2298.92 306.382C2326.83 306.22 2355.39 306.514 2382.46 303.6C2398.28 302.741 2413.89 301.389 2428.98 299.425C2466.57 294.973 2503.65 289.949 2540.12 284.398C2553.33 282.505 2566.46 280.533 2579.11 278.183C2588.13 277.109 2597.01 275.919 2605.95 274.759C2648.09 269.186 2692.59 266.542 2735.44 261.78C2776.04 257.15 2817.2 253.17 2858.59 249.59C2903.01 246.336 2947.94 244.048 2992.59 241.249C3023.64 238.853 3054.92 236.751 3086.58 235.823C3132.08 234.864 3176.99 231.858 3222.5 231.031C3252.49 230.389 3281.45 227.428 3310.42 224.754C3342.83 221.507 3375.87 219.119 3408.23 215.795C3435.56 212.889 3463.79 211.38 3491.76 209.502C3516.69 207.933 3541.31 205.715 3566.45 204.587Z" fill="#CAD5D8" stroke="#CAD5D8"/>
<path d="M4086.42 193.654C4077.94 192.973 4069.78 191.907 4061.54 190.995C4040.58 189.395 4019.24 188.514 3998.59 186.488C3972.89 184.378 3949.13 180.111 3926.18 175.573C3922.64 174.962 3919.18 174.329 3915.83 173.649C3887.13 167.009 3854 163.608 3822.31 159.356C3801.6 156.357 3781.48 152.871 3761.08 149.632C3744.04 146.91 3725.75 145.481 3707.8 143.773C3706.77 143.734 3704.69 143.664 3703.63 143.633C3684.06 143.138 3664.3 142.342 3645.65 140.047C3626.84 137.874 3607.82 135.896 3589.55 133.182C3568.3 130.268 3545.75 128.706 3524.69 125.568C3502.15 122.445 3480.81 117.908 3456.53 116.702C3421.75 114.707 3387.34 111.082 3356.75 104.697C3341.78 101.706 3327.42 98.3354 3313.59 94.7019C3297.38 90.7833 3281.48 86.7017 3266.41 82.226C3250.65 77.5184 3233.69 73.3674 3217.16 69.0309C3199.29 64.6402 3180.08 60.5278 3158.42 59.2061C3138.77 58.0156 3119.75 55.4725 3099.68 55.3255C3077.12 55.0628 3054.9 56.8097 3032.57 57.6678C3006.64 58.719 2982.33 62.2594 2957.32 64.702C2942.57 66.2095 2928.06 68.1033 2912.8 68.8299C2880.96 70.5768 2848.13 69.1777 2816.83 72.2697C2792.76 74.581 2769.11 77.4334 2744.95 79.6442C2728.64 81.2133 2711.59 80.9118 2695 81.7699C2674.15 82.5893 2653.67 84.429 2632.7 84.8233C2621.21 85.0629 2609.66 85.1789 2598.32 85.8746C2590.68 86.4775 2583.21 87.3356 2575.82 88.2322C2557.25 90.7752 2538.6 93.2262 2519.64 95.3515C2499.5 97.5464 2482.35 102.51 2461.38 103.8C2442.48 104.967 2423.29 104.009 2404.29 104.025C2386.71 104.063 2369.6 102.548 2352.23 101.814C2326.6 101.041 2301.35 98.3589 2275.48 99.0465C2257.72 99.4482 2239.69 99.0773 2222.28 100.577C2196.84 102.626 2171.87 105.316 2146.54 107.519C2124.3 110.124 2101.94 112.628 2079.7 115.241C2047.67 119.956 2015.02 124.64 1980.36 126.063C1961.97 126.859 1943.87 125.151 1925.64 124.679C1912.12 124.3 1898.58 124.896 1885.37 125.877C1840.55 129.348 1796.23 134.635 1749.9 134.666C1720.72 134.659 1691.7 136.182 1662.51 135.965C1645.03 135.857 1627.75 134.697 1610.27 134.581C1595.11 134.326 1579.94 134.643 1564.81 134.396C1544.03 134.094 1524.4 131.42 1504.7 129.317C1497.11 128.521 1489.7 127.509 1482.75 126.171C1466.63 123.844 1451.3 120.923 1435.8 118.132C1411.78 113.687 1385.5 110.95 1358.93 109.358C1312.22 107.093 1264.63 102.989 1225.47 93.1411C1207.69 87.9462 1188.97 83.1536 1172.46 77.4179C1145.83 68.6753 1122.82 58.6804 1098.17 49.2498C1068.68 38.1649 1038.46 27.2812 1004.86 17.7965C973.861 9.18522 938.343 1.12281 897.854 0.906374C876.585 0.84453 855.642 2.17408 834.805 3.50364C803.355 4.82547 773.37 8.7214 744.01 12.7873C732.773 14.3566 721.234 15.6165 709.503 16.5828C683.822 18.6776 657.82 21.3059 631.235 20.4633C606.761 19.6671 582.372 18.4998 557.812 18.0902C536.243 17.4641 514.223 18.0051 493.149 15.9335C478.424 14.4802 463.851 12.826 449.538 10.9168C429.561 8.49722 408.423 7.27588 387.328 7.68557C348.925 8.47404 309.921 9.27795 271.949 6.50289C254.255 6.64976 236.303 6.58792 219.104 8.27306C207.524 9.38617 195.964 10.5379 184.319 11.5583C160.942 13.6764 138.814 17.178 115.932 19.8526C101.445 21.5609 87.4102 23.764 72.6436 25.1477C59.9866 26.3304 46.8775 26.4617 33.9619 27.057C23.3713 27.7681 12.8022 28.5798 2.14697 29.175V85.1789V246.906C16.2463 252.039 31.96 256.599 48.1473 260.859C67.4345 265.945 89.4982 269.331 110.68 273.211C131.732 277.053 154.506 279.758 177.969 280.802C197.127 281.675 216.371 282.356 235.506 283.276C255.268 284.118 275.049 285.556 295.047 285.03C315.26 284.559 335.408 283.77 355.557 283.021C386.875 281.599 418.239 279.542 449.946 279.898C477.026 280.323 504.04 279.202 530.818 277.88C563.581 276.342 594.513 272.005 626.198 268.859C656.68 265.187 687.805 261.879 716.176 256.337C754.405 249.117 790.268 240.397 828.841 233.409C865.198 226.592 902.137 220.183 938.148 213.142C959.675 209.477 980.941 205.612 1002.96 202.335C1039.9 196.839 1076.73 191.243 1113.6 185.669C1131.77 182.647 1150.18 179.748 1169.61 177.924C1191.92 175.806 1214.52 173.587 1237.77 173.533C1270.14 173.339 1302.23 175.164 1334.39 176.215C1376.61 178.596 1419.59 179.778 1460.64 184.254C1499.6 188.019 1536.07 194.319 1573.61 199.498C1591.78 202.706 1610.27 205.658 1628.33 208.96C1649.21 212.762 1671.27 215.831 1690.69 220.6C1710.56 225.455 1729.76 230.665 1748.03 236.269C1773.04 243.907 1799.87 250.724 1825.83 257.921C1847.37 264.26 1870.15 270.049 1894.21 275.097C1918.97 280.763 1945.85 285.054 1972.22 289.645C1992.39 293.487 2013.34 296.772 2034.71 299.671C2052.45 300.39 2070.38 300.197 2088.16 300.799C2110.42 301.217 2132.52 302.284 2154.74 302.848C2154.74 302.848 2173.1 305.035 2181.55 304.193C2220.86 303.544 2259.61 306.953 2298.92 306.381C2326.83 306.218 2355.39 306.512 2382.46 303.598C2404.27 299.787 2427 296.733 2449.57 293.564C2472.88 290.263 2494.93 285.912 2518.5 282.82C2538.02 280.338 2558.46 278.754 2579.11 278.181C2588.13 277.107 2597.01 275.917 2605.95 274.758C2648.09 269.184 2692.59 266.541 2735.44 261.779C2776.04 257.148 2817.2 253.167 2858.59 249.588C2903.01 246.334 2947.94 244.045 2992.59 241.248C3023.64 238.851 3054.92 236.749 3086.58 235.821C3132.08 234.862 3176.99 231.856 3222.5 231.029C3252.49 230.387 3281.45 227.427 3310.42 224.751C3342.83 221.505 3375.87 219.117 3408.23 215.792C3435.56 212.886 3463.79 211.379 3491.76 209.501C3516.69 207.931 3541.31 205.713 3566.45 204.584C3588.71 203.71 3611.19 203.339 3633.56 203.935C3663.64 204.724 3693.67 206.169 3723.92 206.045C3744.58 205.913 3765.27 206.663 3785.95 206.122C3809.73 205.675 3833.61 206.03 3857.41 205.419C3878.9 204.901 3900.44 205.466 3921.88 205.906C3946.04 206.578 3969.67 208.658 3993.01 210.923C4010.92 212.655 4029.36 213.582 4047.3 215.275C4075.96 217.888 4105.57 218.807 4135.09 218.97V196.066C4118.92 195.061 4102.37 195.076 4086.42 193.654Z" fill="#7A9BA8" stroke="#7A9BA8"/>
<path d="M2518.5 282.821C2538.02 280.341 2558.46 278.755 2579.11 278.184C2566.46 280.533 2553.33 282.505 2540.12 284.398C2503.65 289.948 2466.57 294.973 2428.98 299.426C2413.89 301.389 2398.28 302.742 2382.46 303.599C2404.27 299.788 2427 296.736 2449.57 293.566C2472.88 290.266 2494.93 285.914 2518.5 282.821Z" fill="#7A9BA8" stroke="#7A9BA8"/>
<path d="M2523.14 350.836C2570.95 348.47 2618.5 344.775 2667 344.799C2714.45 344.946 2761.74 346.476 2809.17 347.009C2842.27 347.52 2875.12 349.19 2908.14 350.094C2961.34 351.308 3012.93 356.533 3065.63 359.015C3089.1 360.081 3112.63 361.009 3136 362.369C3177.65 364.843 3218.87 368.259 3260.76 370.284C3287.32 371.359 3314.11 370.88 3340.77 370.764C3394.14 370.757 3446.7 374.869 3497.62 380.326C3532.44 383.734 3566.34 388.38 3598.33 394.403C3631.44 400.594 3665.94 405.735 3699.96 411.215C3722.1 414.748 3743.12 419.115 3765.38 422.57C3804.22 428.793 3840.5 437.057 3880.9 442.004C3919.69 446.851 3958.57 451.596 3997.05 456.761C4034.98 461.251 4073.02 466.453 4113.34 467.227C4090.99 467.845 4068.69 466.538 4046.38 467.103C4022.08 467.559 3997.75 466.538 3973.5 467.118C3926.67 467.505 3879.93 468.904 3833.5 471.022C3812.63 471.633 3792.32 473.581 3772.12 475.436C3727.51 479.665 3682.53 483.367 3637.25 486.521C3607.88 488.576 3577.83 488.461 3548.31 490.053C3529.1 490.896 3510.16 492.38 3491.07 493.455C3469.03 494.675 3447.49 496.841 3425.32 497.807C3400.82 499.306 3376.37 500.922 3351.81 502.275C3307.75 505.614 3262.86 507.291 3218.96 510.901C3198.44 511.991 3178.32 514.047 3157.58 514.573C3111.57 516.065 3065.59 518.484 3021.56 523.632C2981.92 527.613 2945.26 534.478 2906.76 539.587C2858.07 545.817 2810.86 553.471 2761.87 559.407C2723.23 564.416 2682.44 566.72 2641.71 568.165C2599.31 569.85 2559.08 575.531 2516.7 577.278C2494.24 578.207 2472.26 580.24 2449.78 581.089C2423.91 582.581 2398.54 585.24 2372.28 585.812C2347.98 587.127 2323.42 587.297 2298.94 587.761C2272.47 587.281 2245.98 586.771 2219.72 585.473C2196.02 584.56 2172.71 582.705 2149.18 581.399C2104.41 578.539 2060.6 574.056 2017.1 569.347C1978.05 564.88 1939.69 559.67 1901.21 554.63C1878.17 551.909 1855.01 549.327 1832.5 546.088C1810.93 543.344 1789.68 540.206 1769.73 536.147C1738.49 529.723 1705.39 524.607 1672.88 519.11C1636.83 511.643 1597.8 506.348 1560.15 500.041C1513.12 492.542 1468.5 483.057 1419.59 477.121C1356.18 469.452 1290.74 463.632 1223.99 461.475C1202.07 460.541 1180.03 461.259 1158.07 461.097C1137.95 460.958 1117.69 461.545 1097.7 460.509C1036.13 457.703 975.989 452.006 914.511 449.022C889.477 448.125 864.594 446.781 839.667 445.59C791.427 442.514 743.447 438.796 694.735 436.739C666.989 435.859 639.219 435.116 611.538 433.964C593.65 433.191 575.569 433.145 557.681 432.395C541.881 431.738 525.972 431.761 510.088 431.746C481.567 431.352 453.108 430.216 424.544 430.053C407.646 430.146 390.748 429.218 373.85 429.898C354.241 430.146 334.717 430.757 315.151 431.235C327.506 429.481 339.107 427.108 351.293 425.214C373.032 421.813 395.012 418.574 417.354 415.714C463.741 409.932 513.014 408.169 561.771 407.296C594.21 407.312 626.628 406.361 658.831 405.008C675.9 404.134 693.12 403.995 710.319 404.026C748.355 403.709 786.412 403.485 824.448 403.462C855.661 403.447 886.507 405.286 917.547 406.152C939.524 406.793 961.416 407.868 983.438 408.309C1007.98 408.804 1032.13 410.558 1056.58 411.378C1076.71 412.127 1096.96 412.011 1117.18 411.988C1141.72 411.957 1165.87 410.141 1190.3 409.615C1213.16 409.112 1235.87 408.023 1258.58 406.987C1283.91 405.773 1309.53 405.565 1334.91 404.413C1369.22 402.943 1403.94 402.712 1437.93 400.301C1456.79 399.032 1475.13 396.899 1494.05 395.724C1544.96 392.578 1594.4 387.036 1645.09 383.511C1682.63 380.303 1720.58 377.667 1758.77 375.696C1793.75 374.729 1827.68 371.383 1862.18 369.342C1935.61 365.948 2009.8 365.847 2083.7 366.234C2155.53 365.963 2228.59 367.795 2299.09 361.735C2323.35 359.833 2348 358.759 2372.41 357.167C2402.08 355.304 2432.24 354.902 2462.15 353.719C2482.46 352.676 2502.96 352.135 2523.14 350.836Z" fill="#7A9BA8" stroke="#7A9BA8"/>
<path d="M2967.6 496.832C2945.32 499.061 2922.71 501.395 2899.46 501.452C2867.09 501.656 2834.99 499.736 2802.83 498.63C2760.63 496.125 2717.65 494.881 2676.58 490.171C2637.63 486.21 2601.16 479.581 2563.61 474.131C2545.45 470.756 2526.96 467.649 2508.91 464.176C2488.02 460.174 2465.95 456.945 2446.54 451.926C2426.68 446.818 2407.47 441.336 2389.2 435.44C2364.19 427.404 2337.37 420.23 2311.4 412.657C2289.86 405.988 2267.08 399.895 2243.02 394.584C2218.26 388.622 2191.36 384.108 2165 379.277C2144.84 375.234 2123.89 371.777 2102.52 368.727C2133.84 368.418 2164.72 370.566 2195.77 371.737C2221.38 372.924 2247.31 373.233 2272.6 375.316C2297.33 377.406 2321.83 379.96 2346.95 381.31C2384.65 383.376 2421.25 387.662 2459.1 389.378C2483.04 390.81 2507.32 390.615 2531.41 391.307C2556.24 392.03 2581.13 392.404 2605.88 393.364C2653.73 394.332 2701.63 395.316 2749.16 397.61C2782.57 399.22 2816.21 399.667 2849.74 400.636C2872.05 401.245 2894.4 400.904 2916.72 401.01C2943.35 401.132 2969.9 400.303 2996.39 399.481C3019.06 398.7 3041.91 397.952 3063.98 395.772C3097.3 392.38 3130.68 388.997 3164.6 386.605C3189.91 384.799 3215.82 384.832 3241.14 383.026C3266.62 381.473 3291.69 379.106 3317.2 377.552C3344.72 375.934 3372.03 373.803 3399.53 372.087C3418.32 371.029 3436.76 369.313 3455.39 367.946C3492 365.051 3529.93 365.019 3565.87 360.862C3603.05 357.145 3636.89 350.052 3673.02 345.237C3709.92 339.926 3745.52 333.127 3783.95 329.433C3806 327.425 3828.77 327.075 3850.99 325.415C3872.83 323.952 3893.87 321.073 3915.87 319.893C3954.84 317.892 3993.1 314.232 4032.25 312.662C4052.82 311.759 4073.6 312.028 4094.26 312.483C4107.95 312.882 4121.82 313.288 4135.09 314.745V424.248C4120.98 418.847 4105.27 414.049 4089.08 409.566C4069.8 404.215 4047.73 400.652 4026.54 396.569C4005.5 392.526 3982.73 389.68 3959.26 388.581C3940.11 387.663 3920.85 386.946 3901.73 385.979C3881.95 385.093 3862.18 383.58 3842.17 384.133C3821.97 384.628 3801.81 385.458 3781.67 386.247C3750.35 387.744 3718.98 389.908 3687.28 389.533C3660.2 389.086 3633.2 390.265 3606.4 391.656C3573.64 393.274 3542.71 397.838 3511.04 401.149C3480.55 405.012 3449.42 408.492 3421.04 414.325C3382.83 421.922 3346.96 431.096 3308.4 438.449C3272.03 445.623 3235.08 452.366 3199.08 459.775C3177.55 463.631 3156.29 467.697 3134.27 471.146C3097.32 476.93 3060.5 482.819 3023.62 488.682C3005.45 491.863 2987.06 494.913 2967.6 496.832Z" fill="#9AB2BB" stroke="#9AB2BB"/>
<path d="M570.771 468.778C548.512 469.697 526.039 470.087 503.675 469.461C473.582 468.631 443.552 467.11 413.309 467.241C392.646 467.379 371.959 466.59 351.293 467.159C327.486 467.63 303.615 467.257 279.807 467.899C258.325 468.444 236.799 467.85 215.339 467.387C191.186 466.679 167.551 464.491 144.217 462.108C126.307 460.286 107.881 459.31 89.9289 457.529C61.2567 454.779 31.6588 453.812 2.14697 453.641L2.14702 191.818C9.4227 192.005 16.6768 192.216 23.8878 192.42C64.2056 193.233 102.242 198.707 140.17 203.433C178.658 208.866 217.533 213.86 256.322 218.96C296.726 224.165 333.019 232.86 371.851 239.408C394.108 243.044 415.138 247.639 437.268 251.356C471.3 257.123 505.783 262.532 538.89 269.047C570.878 275.383 604.781 280.272 639.61 283.859C690.518 289.601 743.084 293.928 796.444 293.92C823.115 293.798 849.916 293.294 876.477 294.425C918.345 296.555 959.567 300.15 1001.22 302.753C1024.6 304.184 1048.12 305.161 1071.59 306.283C1124.3 308.895 1175.9 314.393 1229.09 315.669C1262.11 316.621 1294.96 318.378 1328.07 318.915C1375.49 319.476 1422.78 321.086 1470.22 321.241C1518.72 321.265 1566.27 317.378 1614.08 314.889C1634.27 313.522 1654.76 312.953 1675.08 311.855C1704.98 310.61 1735.14 310.187 1764.82 308.227C1789.23 306.551 1813.88 305.421 1838.14 303.42C1908.64 297.043 1981.69 298.971 2053.53 298.686C2127.42 299.093 2201.63 298.987 2275.05 295.416C2309.55 293.269 2343.47 289.748 2378.46 288.731C2416.63 286.656 2454.59 283.883 2492.14 280.508C2542.83 276.799 2592.27 270.967 2643.17 267.656C2662.11 266.42 2680.44 264.175 2699.29 262.841C2733.28 260.303 2768.01 260.06 2802.32 258.515C2827.69 257.302 2853.31 257.082 2878.64 255.806C2901.35 254.716 2924.07 253.569 2946.93 253.04C2971.36 252.487 2995.51 250.575 3020.05 250.544C3040.25 250.519 3060.52 250.397 3080.64 251.186C3105.09 252.048 3129.24 253.894 3153.78 254.415C3175.81 254.878 3197.71 256.009 3219.69 256.684C3250.71 257.595 3281.56 259.531 3312.78 259.514C3350.82 259.49 3388.86 259.255 3426.9 258.921C3444.1 258.953 3461.32 258.807 3478.41 257.888C3510.59 256.464 3543.01 255.464 3575.47 255.48C3624.22 254.562 3673.49 252.707 3719.87 246.622C3742.21 243.613 3764.2 240.205 3785.95 236.627C3798.12 234.633 3809.71 232.137 3822.08 230.291C3845.76 229.681 3868.99 227.728 3892.45 226.517C3938.14 224.069 3983.54 220.652 4029.7 219.66C4065.08 218.797 4100.03 216.447 4135.09 214.471V314.742C4121.82 313.286 4107.95 312.88 4094.26 312.481C4073.6 312.026 4052.82 311.757 4032.25 312.66C3993.1 314.23 3954.84 317.89 3915.87 319.891C3893.87 321.071 3872.83 323.95 3851 325.414C3828.78 327.073 3806 327.423 3783.95 329.432C3745.52 333.124 3709.93 339.924 3673.02 345.235C3636.89 350.05 3603.05 357.143 3565.87 360.86C3529.93 365.017 3492 365.049 3455.39 367.945C3436.76 369.311 3418.32 371.027 3399.53 372.085C3372.03 373.801 3344.72 375.932 3317.2 377.551C3291.7 379.104 3266.62 381.471 3241.14 383.024C3215.83 384.83 3189.91 384.798 3164.6 386.604C3130.68 388.995 3097.3 392.378 3063.98 395.77C3041.91 397.949 3019.07 398.698 2996.39 399.479C2969.9 400.3 2943.35 401.13 2916.72 401.008C2894.4 400.902 2872.05 401.244 2849.74 400.634C2816.21 399.666 2782.57 399.219 2749.16 397.608C2701.63 395.315 2653.73 394.33 2605.88 393.362C2581.13 392.402 2556.25 392.029 2531.41 391.305C2507.32 390.614 2483.04 390.808 2459.1 389.377C2421.25 387.66 2384.65 383.375 2346.95 381.308C2321.83 379.958 2297.33 377.404 2272.6 375.314C2247.31 373.231 2221.38 372.923 2195.77 371.735C2164.72 370.564 2133.84 368.416 2102.52 368.726C2084.78 367.969 2066.85 368.173 2049.07 367.538C2026.81 367.099 2004.7 365.976 1982.49 365.382L1955.67 363.967C1916.36 364.65 1877.62 361.063 1838.31 361.666C1810.39 361.836 1781.85 361.527 1754.77 364.593C1738.95 365.496 1723.34 366.92 1708.25 368.986C1670.65 373.671 1633.58 378.957 1597.12 384.798C1583.9 386.79 1570.77 388.865 1558.11 391.337C1549.11 392.467 1540.22 393.72 1531.29 394.94C1489.14 400.805 1444.63 403.586 1401.79 408.597C1361.19 413.469 1320.04 417.658 1278.64 421.423C1234.21 424.848 1189.29 427.255 1144.62 430.2C1113.58 432.721 1082.31 434.933 1050.64 435.91C1005.16 436.918 960.235 440.082 914.73 440.953C884.745 441.628 855.771 444.743 826.818 447.557C794.401 450.973 761.358 453.486 729.005 456.984C701.667 460.042 673.446 461.628 645.464 463.604C620.537 465.255 595.913 467.59 570.771 468.778Z" fill="#CAD5D8" stroke="#CAD5D8"/>
<path d="M50.8167 480.279C59.2979 480.995 67.4562 482.117 75.7006 483.077C96.6451 484.761 117.977 485.688 138.642 487.819C164.343 490.039 188.108 494.529 211.054 499.304C214.584 499.946 218.05 500.613 221.408 501.329C250.101 508.316 283.229 511.894 314.917 516.369C335.623 519.524 355.75 523.192 376.134 526.601C393.183 529.463 411.48 530.968 429.432 532.766C430.465 532.806 432.532 532.88 433.587 532.912C453.174 533.432 472.915 534.27 491.578 536.686C510.39 538.971 529.399 541.054 547.673 543.909C568.94 546.975 591.477 548.618 612.529 551.92C635.067 555.206 656.42 559.981 680.701 561.25C715.486 563.348 749.886 567.163 780.474 573.882C795.455 577.029 809.813 580.575 823.632 584.398C839.841 588.522 855.749 592.816 870.816 597.526C886.574 602.479 903.536 606.847 920.067 611.41C937.933 616.03 957.156 620.357 978.812 621.748C998.464 623 1017.47 625.676 1037.55 625.831C1060.11 626.108 1082.33 624.27 1104.65 623.367C1130.59 622.26 1154.89 618.535 1179.9 615.965C1194.65 614.379 1209.18 612.386 1224.44 611.622C1256.28 609.783 1289.1 611.255 1320.4 608.002C1344.47 605.57 1368.13 602.569 1392.28 600.243C1408.59 598.592 1425.64 598.909 1442.24 598.006C1463.07 597.144 1483.57 595.208 1504.53 594.793C1516.03 594.541 1527.57 594.419 1538.91 593.687C1546.55 593.053 1554.02 592.15 1561.41 591.206C1579.98 588.531 1598.62 585.952 1617.59 583.715C1637.73 581.405 1654.87 576.183 1675.86 574.825C1694.76 573.597 1713.94 574.605 1732.94 574.589C1750.53 574.548 1767.64 576.143 1784.99 576.915C1810.63 577.729 1835.88 580.551 1861.75 579.827C1879.51 579.404 1897.53 579.794 1914.94 578.216C1940.39 576.061 1965.36 573.231 1990.69 570.913C2012.93 568.172 2035.29 565.536 2057.53 562.787C2089.56 557.826 2122.21 552.896 2156.87 551.4C2175.26 550.562 2193.36 552.36 2211.59 552.856C2225.11 553.255 2238.64 552.628 2251.86 551.595C2296.69 547.943 2341 542.38 2387.33 542.347C2416.51 542.355 2445.53 540.753 2474.73 540.981C2492.2 541.095 2509.49 542.314 2526.96 542.437C2542.12 542.705 2557.3 542.371 2572.43 542.632C2593.19 542.95 2612.84 545.763 2632.52 547.976C2640.12 548.813 2647.53 549.879 2654.49 551.286C2670.61 553.734 2685.94 556.809 2701.44 559.746C2725.44 564.422 2751.74 567.301 2778.3 568.977C2825.01 571.36 2872.61 575.679 2911.77 586.042C2929.54 591.507 2948.26 596.55 2964.77 602.585C2991.39 611.785 3014.41 622.301 3039.05 632.224C3068.55 643.888 3098.78 655.34 3132.38 665.32C3163.38 674.381 3198.89 682.865 3239.38 683.093C3260.65 683.157 3281.58 681.758 3302.43 680.359C3333.88 678.969 3363.85 674.869 3393.22 670.591C3404.45 668.939 3416 667.614 3427.72 666.597C3453.4 664.393 3479.42 661.627 3506 662.514C3530.47 663.352 3554.86 664.58 3579.42 665.011C3600.99 665.67 3623 665.101 3644.08 667.28C3658.81 668.809 3673.39 670.55 3687.68 672.559C3707.67 675.105 3728.8 676.39 3749.9 675.959C3788.31 675.13 3827.32 674.284 3865.27 677.204C3882.96 677.049 3900.93 677.114 3918.13 675.341C3929.7 674.17 3941.27 672.957 3952.91 671.884C3976.29 669.655 3998.42 665.971 4021.31 663.156C4035.78 661.359 4049.82 659.041 4064.59 657.585C4077.23 656.341 4090.35 656.202 4103.27 655.576C4113.86 654.828 4124.42 653.974 4135.09 653.348V594.419V424.247C4120.98 418.846 4105.27 414.047 4089.08 409.565C4069.8 404.213 4047.73 400.65 4026.54 396.567C4005.51 392.525 3982.73 389.678 3959.26 388.58C3940.11 387.662 3920.85 386.945 3901.73 385.978C3881.95 385.091 3862.18 383.578 3842.17 384.131C3821.97 384.627 3801.81 385.457 3781.67 386.246C3750.35 387.742 3718.99 389.906 3687.28 389.532C3660.2 389.085 3633.2 390.264 3606.4 391.655C3573.64 393.273 3542.71 397.837 3511.04 401.147C3480.56 405.01 3449.43 408.491 3421.04 414.323C3382.83 421.92 3346.96 431.095 3308.4 438.448C3272.03 445.622 3235.08 452.365 3199.08 459.774C3177.55 463.63 3156.29 467.697 3134.27 471.145C3097.32 476.928 3060.5 482.817 3023.62 488.681C3005.45 491.861 2987.06 494.912 2967.61 496.831C2945.32 499.06 2922.71 501.394 2899.46 501.451C2867.09 501.654 2834.99 499.735 2802.83 498.629C2760.63 496.124 2717.65 494.88 2676.58 490.169C2637.63 486.208 2601.16 479.58 2563.61 474.13C2545.45 470.755 2526.96 467.648 2508.91 464.175C2488.02 460.173 2465.95 456.944 2446.54 451.925C2426.68 446.818 2407.47 441.335 2389.2 435.438C2364.19 427.402 2337.37 420.229 2311.4 412.656C2289.86 405.987 2267.08 399.894 2243.02 394.583C2218.27 388.621 2191.37 384.107 2165 379.275C2144.84 375.233 2123.89 371.776 2102.52 368.726C2084.78 367.97 2066.85 368.173 2049.07 367.539C2026.81 367.099 2004.7 365.977 1982.49 365.383C1982.49 365.383 1964.13 363.081 1955.67 363.968C1916.36 364.651 1877.62 361.064 1838.31 361.666C1810.39 361.837 1781.85 361.528 1754.77 364.594C1732.97 368.604 1710.23 371.817 1687.65 375.151C1664.34 378.625 1642.3 383.204 1618.73 386.457C1599.2 389.069 1578.78 390.736 1558.11 391.338C1549.11 392.468 1540.22 393.721 1531.29 394.94C1489.14 400.805 1444.63 403.587 1401.79 408.597C1361.19 413.469 1320.04 417.658 1278.64 421.424C1234.21 424.848 1189.29 427.256 1144.62 430.2C1113.58 432.721 1082.31 434.934 1050.64 435.91C1005.16 436.919 960.235 440.083 914.73 440.953C884.745 441.628 855.771 444.743 826.818 447.558C794.401 450.973 761.358 453.487 729.005 456.984C701.667 460.043 673.449 461.629 645.464 463.606C620.537 465.256 595.913 467.591 570.771 468.778C548.512 469.697 526.039 470.087 503.675 469.461C473.583 468.632 443.552 467.111 413.309 467.241C392.646 467.379 371.959 466.59 351.293 467.159C327.487 467.631 303.616 467.257 279.807 467.9C258.325 468.444 236.799 467.851 215.339 467.387C191.186 466.68 167.551 464.491 144.217 462.108C126.307 460.287 107.882 459.311 89.9291 457.529C61.2569 454.78 31.659 453.812 2.14722 453.641V477.742C18.313 478.799 34.8662 478.783 50.8167 480.279Z" fill="#7A9BA8" stroke="#7A9BA8"/>
<path d="M1618.73 386.458C1599.2 389.07 1578.78 390.737 1558.11 391.339C1570.77 388.866 1583.9 386.792 1597.12 384.799C1633.58 378.96 1670.65 373.672 1708.25 368.987C1723.34 366.922 1738.95 365.498 1754.77 364.596C1732.97 368.606 1710.23 371.818 1687.65 375.152C1664.34 378.626 1642.3 383.205 1618.73 386.458Z" fill="#7A9BA8" stroke="#7A9BA8"/>
<path d="M1614.08 314.89C1566.27 317.379 1518.72 321.267 1470.22 321.243C1422.78 321.089 1375.49 319.478 1328.07 318.917C1294.96 318.38 1262.11 316.623 1229.09 315.671C1175.9 314.395 1124.3 308.896 1071.59 306.285C1048.12 305.162 1024.6 304.187 1001.22 302.755C959.567 300.153 918.345 296.557 876.477 294.427C849.914 293.296 823.115 293.8 796.444 293.922C743.082 293.93 690.516 289.603 639.61 283.861C604.781 280.273 570.878 275.386 538.89 269.049C505.783 262.535 471.3 257.125 437.268 251.359C415.138 247.641 394.108 243.046 371.851 239.41C333.019 232.863 296.726 224.168 256.322 218.962C217.533 213.862 178.658 208.869 140.17 203.435C102.241 198.709 64.2053 193.235 23.8877 192.422C46.2314 191.771 68.5321 193.146 90.8541 192.552C115.157 192.073 139.481 193.146 163.74 192.536C210.558 192.13 257.291 190.657 303.723 188.428C324.601 187.786 344.9 185.737 365.112 183.784C409.715 179.335 454.703 175.439 499.972 172.121C529.332 169.957 559.403 170.079 588.916 168.403C608.139 167.516 627.059 165.955 646.153 164.825C668.195 163.539 689.743 161.262 711.914 160.245C736.41 158.667 760.862 156.967 785.425 155.544C829.465 152.031 874.369 150.265 918.259 146.467C938.794 145.32 958.899 143.157 979.651 142.603C1025.65 141.033 1071.63 138.488 1115.67 133.07C1155.3 128.882 1191.98 121.659 1230.47 116.282C1279.16 109.727 1326.36 101.675 1375.36 95.4276C1414 90.1573 1454.79 87.7335 1495.51 86.2125C1537.92 84.4394 1578.15 78.4612 1620.54 76.6229C1642.99 75.6469 1664.96 73.5077 1687.44 72.6131C1713.31 71.0432 1738.69 68.2452 1764.95 67.6434C1789.25 66.2606 1813.81 66.0818 1838.29 65.5938C1864.74 66.098 1891.24 66.6348 1917.5 68.0012C1941.2 68.961 1964.51 70.9132 1988.04 72.2878C2032.82 75.2971 2076.62 80.0147 2120.13 84.9681C2159.16 89.6694 2197.53 95.1517 2236.02 100.455C2259.06 103.318 2282.22 106.034 2304.72 109.442C2326.29 112.33 2347.55 115.632 2367.49 119.902C2398.73 126.661 2431.83 132.046 2464.34 137.829C2500.41 145.686 2539.41 151.258 2577.07 157.894C2624.11 165.785 2668.72 175.764 2717.65 182.011C2781.04 190.079 2846.48 196.205 2913.25 198.474C2935.14 199.458 2957.19 198.701 2979.16 198.872C2999.27 199.018 3019.54 198.4 3039.52 199.49C3101.1 202.443 3161.23 208.437 3222.72 211.577C3247.75 212.52 3272.63 213.935 3297.56 215.188C3345.8 218.426 3393.78 222.338 3442.49 224.501C3470.23 225.428 3498.01 226.209 3525.68 227.422C3543.59 228.235 3561.66 228.284 3579.55 229.073C3595.35 229.764 3611.26 229.74 3627.14 229.756C3655.65 230.17 3684.12 231.366 3712.67 231.537C3729.59 231.44 3746.49 232.415 3763.38 231.699C3782.98 231.44 3802.52 230.796 3822.08 230.292C3809.71 232.139 3798.12 234.636 3785.92 236.628C3764.2 240.208 3742.21 243.615 3719.86 246.625C3673.49 252.709 3624.22 254.564 3575.45 255.483C3543.01 255.467 3510.59 256.466 3478.39 257.89C3461.32 258.809 3444.1 258.955 3426.9 258.923C3388.86 259.257 3350.82 259.493 3312.78 259.517C3281.56 259.533 3250.71 257.597 3219.69 256.686C3197.71 256.011 3175.81 254.88 3153.78 254.417C3129.24 253.897 3105.09 252.05 3080.64 251.188C3060.52 250.399 3040.25 250.521 3020.05 250.546C2995.51 250.578 2971.36 252.489 2946.93 253.043C2924.07 253.571 2901.35 254.717 2878.64 255.808C2853.31 257.085 2827.69 257.304 2802.32 258.517C2768.01 260.062 2733.28 260.306 2699.29 262.843C2680.44 264.178 2662.11 266.422 2643.17 267.658C2592.27 270.969 2542.83 276.801 2492.14 280.509C2454.59 283.885 2416.63 286.659 2378.46 288.733C2343.47 289.75 2309.55 293.271 2275.05 295.419C2201.63 298.989 2127.42 299.095 2053.53 298.689C1981.69 298.973 1908.64 297.046 1838.14 303.423C1813.88 305.423 1789.23 306.554 1764.82 308.23C1735.14 310.189 1704.98 310.613 1675.08 311.857C1654.76 312.955 1634.27 313.524 1614.08 314.89Z" fill="#7A9BA8" stroke="#7A9BA8"/>
</g>
<defs>
<clipPath id="clip0_42_2">
<rect width="4137" height="684" fill="white"/>
</clipPath>
</defs>
</svg>
